<svg xmlns="http://www.w3.org/2000/svg" width="351" height="349" fill="none"><path fill="#2B2B2B" stroke="#2B2B2B" stroke-linecap="round" stroke-linejoin="round" d="M278.589 104.385s-2.929-1.897-3.445-7.58c-.516-5.684 6.208-9.82 12.066-8.614 5.859 1.207 12.058 4.818 10.335 12.924-1.722 8.105-10.868 8.56-13.701 7.292a18.04 18.04 0 0 1-5.255-4.022Z"/><path stroke="#2B2B2B" stroke-linecap="round" stroke-linejoin="round" d="M281.387 93.184s3.62-3.27 6.033-2.413"/><path fill="#F4F4F4" stroke="#2B2B2B" stroke-linecap="round" stroke-linejoin="round" d="M292.448 92.747a1.655 1.655 0 0 1-1.819 1.87 1.653 1.653 0 0 1 .184-3.295 1.539 1.539 0 0 1 1.635 1.425ZM279.612 93.385c0 .516-.569.927-1.277.927s-1.285-.41-1.285-.927c0-.516.577-.927 1.285-.927s1.277.42 1.277.927Z"/><path fill="#2B2B2B" stroke="#2B2B2B" stroke-linecap="round" stroke-linejoin="round" d="M290.918 88.769s-2.93-1.898-3.445-7.581c-.516-5.684 6.199-9.829 12.057-8.622 5.859 1.207 12.067 4.827 10.344 12.924-1.722 8.096-10.877 8.56-13.71 7.3a18.09 18.09 0 0 1-5.246-4.022Z"/><path stroke="#2B2B2B" stroke-linecap="round" stroke-linejoin="round" d="M293.672 77.568s3.62-3.28 6.033-2.414"/><path fill="#F4F4F4" stroke="#2B2B2B" stroke-linecap="round" stroke-linejoin="round" d="M303.098 78.547c.908 0 1.644-.638 1.644-1.425s-.736-1.426-1.644-1.426c-.908 0-1.644.639-1.644 1.426 0 .787.736 1.425 1.644 1.425ZM291.906 77.769c0 .507-.577.926-1.286.926-.708 0-1.285-.42-1.285-.926 0-.508.577-.927 1.285-.927.709 0 1.286.41 1.286.927ZM313.005 62.668a1.874 1.874 0 0 1-1.111-.358 1.907 1.907 0 0 1-.783-1.244 1.927 1.927 0 0 1 .328-1.432l8.246-11.568a1.922 1.922 0 0 1 3.13 2.23l-8.21 11.559a1.915 1.915 0 0 1-1.6.813Z"/><path fill="#285E67" stroke="#2B2B2B" stroke-linecap="round" stroke-linejoin="round" d="m315.934 56.084-62.449-8.176L350 99.882l-34.066-43.798Z"/><path stroke="#2B2B2B" stroke-linecap="round" stroke-linejoin="round" d="m313.888 57.43-29.406-.148M312.401 60.447l-4.512 4.188M316.738 59.686l5.859 9.898M323.795 72.89l6.304 12.154M287.481 65.833l8.552-2.85M258.076 50.234l19.804 2.247M342.104 95.694l-8.105-11.551"/><path fill="#285E67" stroke="#2B2B2B" stroke-linecap="round" stroke-linejoin="round" d="m235.744 102.059 20.626 64.25 54.475-41.21a28.954 28.954 0 0 0-7.144-7.668 12.453 12.453 0 0 0-8.989-1.854l-.787-3.698a67.45 67.45 0 0 0-9.522-5.29c-3.969-1.583-9.251-3.961-10.046-3.166a3.37 3.37 0 0 1-2.116.787s-2.116-2.903-3.174-3.436c-1.058-.534-11.63-1.32-15.862-1.32-2.38-.07-4.713.677-6.61 2.116 0 0-2.623-2.116-3.961-2.116-1.338 0-6.89 2.605-6.89 2.605Z"/><path fill="#FCE2D7" stroke="#2B2B2B" stroke-linecap="round" stroke-linejoin="round" d="M268.542 102.593c-1.058-.534-11.638-1.321-15.861-1.321a10.446 10.446 0 0 0-6.611 2.116s-2.623-2.116-3.969-2.116c-.971 0-4.241 1.434-5.894 2.186l20.172 62.851 53.294-40.335a27.666 27.666 0 0 0-6.496-6.698 12.463 12.463 0 0 0-8.989-1.854l-.796-3.698a66.808 66.808 0 0 0-9.513-5.291c-3.97-1.582-9.26-3.969-10.047-3.174a3.347 3.347 0 0 1-2.116.796s-2.116-2.938-3.174-3.462Z"/><path stroke="#2B2B2B" stroke-linecap="round" stroke-linejoin="round" d="m303.176 119.25-5.167 5.832M290.244 130.608l-1.818 2.37M294.905 124.522l-3.498 4.565M273.325 112.998l-.691 2.221M275.17 107.043l-1.111 3.585M246.07 103.388l1.758 9.575M250.643 109.019l.848 7.887"/><path fill="#285E67" stroke="#2B2B2B" stroke-linecap="round" stroke-linejoin="round" d="m217.268 164.106-7.441 1.888-1.049-4.17-1.828-7.197-3.34-13.194-1.81-7.196-3.34-13.195-1.81-7.196-3.349-13.203-1.819-7.188-3.331-13.203-1.819-7.188-2.501-9.88 7.45-1.88.708 2.798 1.819 7.196 3.34 13.195 1.819 7.196 3.331 13.203 1.819 7.188 3.34 13.203 1.819 7.196 3.331 13.195 1.819 7.187 2.842 11.245Z"/><path fill="#2B2B2B" d="m202.298 104.892-5.648 8.954 1.81 7.196 5.657-8.962-1.819-7.188Zm-5.15-20.4-5.666 8.963 1.819 7.188 5.666-8.954-1.819-7.196Zm10.309 40.791-5.657 8.954 1.81 7.196 5.666-8.954-1.819-7.196Zm-15.468-61.207-5.657 8.962 1.819 7.188 5.622-8.928-1.784-7.222Zm14.97 90.525 5.648-8.954 1.819 7.188-5.648 8.989-1.819-7.223Z"/><path stroke="#2B2B2B" stroke-linecap="round" stroke-linejoin="round" d="M274.269 340.802h-85.043s-.795-2.378 3.97-3.699c4.765-1.32 25.637-8.997 27.753-12.162 2.116-3.166 2.912-3.174 2.116-6.348-.796-3.174-5.815-8.744-4.494-12.95 1.32-4.206 3.707-7.94 3.969-11.367a11.42 11.42 0 0 0-.795-5.561 57.078 57.078 0 0 1-8.482-5.859c-8.167-6.662-19.402-18.991-20.111-36.724-1.058-28.024 13.746-61.067 8.456-89.354-5.29-28.286-11.901-33.585-9.251-36.724h78.694c2.624 3.174-3.969 8.464-9.251 36.724-5.281 28.261 9.514 61.33 8.456 89.354-.665 17.715-11.901 30.044-20.111 36.724a57.692 57.692 0 0 1-8.482 5.859 11.42 11.42 0 0 0-.795 5.561c.271 3.427 2.623 7.135 3.969 11.367 1.347 4.232-3.698 9.776-4.494 12.95-.796 3.174 0 3.174 2.116 6.348s22.996 10.842 27.762 12.162c4.765 1.321 4.048 3.699 4.048 3.699Z"/><path fill="#F4F4F4" stroke="#2B2B2B" stroke-linecap="round" stroke-linejoin="round" d="M274.269 340.802h-85.043s-.795-2.378 3.97-3.699c4.765-1.32 25.637-8.997 27.753-12.162 2.116-3.166 2.912-3.174 2.116-6.348-.796-3.174-5.815-8.744-4.494-12.95 1.32-4.206 3.707-7.94 3.969-11.367a11.42 11.42 0 0 0-.795-5.561 57.078 57.078 0 0 1-8.482-5.859h36.961a57.745 57.745 0 0 1-8.482 5.859 11.432 11.432 0 0 0-.796 5.561c.271 3.427 2.623 7.135 3.97 11.367 1.347 4.232-3.699 9.776-4.494 12.95-.796 3.174 0 3.174 2.116 6.348s22.996 10.842 27.761 12.162c4.766 1.321 3.97 3.699 3.97 3.699Z"/><path fill="#F4F4F4" d="M213.998 330.668a75.031 75.031 0 0 1-13.23 5.5c-6.392 1.749-.874 3.121 5.054 1.189s6.243-3.419 12.486-3.419 3.445-2.702.306-2.544c-3.139.157-2.981-1.767-4.616-.726ZM236.26 291.137s-11.997 2.081-9.724 1.749c2.274-.333 6.121 1.827 10.703.874a9.757 9.757 0 0 1 2.273 5.858c.333 3.909-8.455.98-12.04 8.141-3.585 7.161 2.623 7.808 5.246 9.758 2.623 1.95 3.253 3.585.647 5.246-2.605 1.662-4.101-4.031-6.505-1.626-2.405 2.405 1.303 5.203 3.576 5.203 2.274 0 6.838-.971 7.485-4.879.647-3.909 4.555-7.809 4.888-13.667a25.374 25.374 0 0 0-.516-6.75c-.778-3.428-2.956-5.448-2.956-8.412 0-2.964-1.915-2.002-3.077-1.495Z"/><path fill="#F4F4F4" d="M243.412 327.336a2.151 2.151 0 0 1-1.311 2.903c-2.169.875-23.487 1.155-23.487 1.155s14.069 1.748 21.86.874c7.791-.874 5.247-2.903 7.249-2.177s4.783 2.903 2.754 4.643c-2.028 1.74 1.014 3.331-14.209 1.014-15.223-2.317-19.568.14-22.471 1.591-2.903 1.452-21.169 2.624-21.169 2.624h78.292s-1.451-2.029-5.36-2.903c-3.908-.875-4.643.577-7.546 0-2.903-.577-1.154-.875-1.88-2.624-.725-1.748-12.722-7.1-12.722-7.1ZM233.497 295.413s-2.571-.263-5.789-.647c-3.218-.385-6.698 9.53-6.182 11.463.516 1.932 2.317-2.449 6.051-4.25 3.734-1.801 7.869.385 8.368-3.733.498-4.119-2.448-2.833-2.448-2.833ZM230.279 317.683s-5.657-6.051-6.436-2.571c-.778 3.481 8.368 8.368 8.744 5.92.376-2.448-2.308-3.349-2.308-3.349Z"/><path fill="#F4F4F4" d="M235.105 326.506s-4.608 1.486-7.58.297c-2.973-1.189-3.568-.594-6.541 1.041-2.973 1.635-1.486 2.973 7.432 2.675 8.919-.297 13.824-1.932 12.635-3.121s-.892-2.527-5.946-.892Z"/><path stroke="#2B2B2B" stroke-linecap="round" stroke-linejoin="round" d="M201.887 122.153h52.114M194.516 122.153h5.063"/><path fill="#F4F4F4" stroke="#2B2B2B" stroke-linecap="round" stroke-linejoin="round" d="M261.835 156.787a198.35 198.35 0 0 1 2.405-11.105h-64.993c.813 3.253 1.617 6.926 2.404 11.105 5.29 28.295-9.522 61.338-8.464 89.363 1.058 28.024 28.567 42.565 28.567 42.565s6.426 1.329 19.997 0c0 0 27.499-14.541 28.557-42.565 1.058-28.025-13.754-61.068-8.473-89.363Z"/><path fill="#2A2A2A" d="M262.386 336.701c-4.756-1.311-25.637-8.91-27.753-12.049-2.116-3.139-2.911-3.139-2.116-6.287.796-3.148 5.815-8.639 4.495-12.827-1.321-4.188-3.708-7.869-3.97-11.262a11.178 11.178 0 0 1 .796-5.5 58.108 58.108 0 0 0 8.481-5.806c8.167-6.602 19.403-18.817 20.111-36.366 1.058-27.753-13.745-60.499-8.455-88.514 5.29-28.015 11.9-33.227 9.251-36.41h4.826c2.624 3.148-3.969 8.386-9.251 36.41-5.281 28.024 9.47 60.796 8.421 88.549-.665 17.549-11.901 29.729-20.068 36.366a58.055 58.055 0 0 1-8.481 5.806 11.178 11.178 0 0 0-.796 5.5c.263 3.401 2.623 7.074 3.97 11.262 1.347 4.188-3.707 9.688-4.494 12.827-.787 3.139 0 3.148 2.116 6.287s22.996 10.738 27.753 12.014c4.756 1.277 3.969 3.673 3.969 3.673h-4.844s.805-2.335-3.961-3.673Z" opacity=".19"/><path fill="#285E67" stroke="#2B2B2B" stroke-miterlimit="10" d="M107.034 170.567s-3.848-5.43-9.278-6.12a41.405 41.405 0 0 0-11.76.673s2.483-4.748 4.748-6.121a54.681 54.681 0 0 1 5.43-2.71 15.562 15.562 0 0 0-5.43-6.121c-3.847-2.483-10.187-6.331-10.187-6.331s8.15.674 11.997 1.81a44.534 44.534 0 0 1 8.149 3.62s-5.884-6.339-10.641-10.86c-4.757-4.52-14.707-12.906-14.707-12.906l-7.494-4.774a144.954 144.954 0 0 1 14.506 5.247c6.121 2.719 19.464 11.542 19.464 11.542s-5.657-9.531-11.77-17.663c-6.111-8.132-18.554-18.563-18.554-18.563l26.477 20.111-10.633-16.972-4.529-4.53s11.315 6.121 14.934 10.86c3.62 4.74 12.452 14.935 12.452 14.935S98.666 89.949 93.463 81.572C88.261 73.196 79.657 64.6 79.657 64.6s14.707 4.976 18.554 7.24c3.848 2.265 5.203 3.62 5.657 4.302.455.682-1.355-9.504-7.24-21.947-5.884-12.442-8.603-19.009-8.603-19.009s10.44 6.846 15.389 15.861 11.542 23.338 11.542 23.338-6.995-38.246-10.405-45.468c-3.411-7.223-10.187-17.19-10.187-17.19s16.744 12.896 20.111 28.058l3.392 15.153s-3.139-17.234-5.412-31.941c-2.273-14.707-2.711-21.274-2.711-21.956 0-.682 5.885 7.24 9.278 14.707a82.929 82.929 0 0 1 5.43 18.363c.454 2.483-.455-8.15 1.128-15.617 1.582-7.467 2.946-11.77 3.174-13.116.227-1.346 2.938 13.116 3.62 24.44.682 11.323.445 28.058.445 28.058s7.695-15.616 9.278-19.463c1.582-3.848 4.756-7.87 4.984-8.823a152.402 152.402 0 0 1-3.148 19.647 2629.833 2629.833 0 0 1-2.938 11.997l.227 5.885s13.991-26.232 19.237-34.399c5.246-8.167 13.99-15.162 13.99-15.162s-.874 4.984-6.995 22.184a194.646 194.646 0 0 1-15.844 33.707c-1.583 2.492-3.847 6.995-4.521 8.377-.673 1.381.446 10.86.446 10.86s12.242-7.24 21.729-11.77c9.487-4.529 26.922-7.685 26.922-7.685s-20.81 8.368-27.377 14.934c-6.566 6.567-20.364 17.418-20.364 17.418l.227 9.732s16.29-12.443 27.377-17.2c11.087-4.756 19.009-5.657 19.009-5.657l-29.187 20.4c-7.467 5.202-16.071 11.996-16.071 11.996s18.109-8.822 32.589-9.277c0 0-25.358 15.835-27.832 19.455-2.475 3.62-6.34 7.695-6.794 8.377-.455.682 11.769-4.075 18.782-5.885a128.498 128.498 0 0 1 14.707-2.719 65.634 65.634 0 0 0-20.111 9.059c-10.633 6.995-14.769 8.446-15.87 9.767l-1.102 1.32s23.311-8.377 28.968-9.732a35.576 35.576 0 0 1 11.761-.455s-16.001 2.431-23.39 9.619c-7.388 7.187-17.103 16.263-27.631 15.669-10.527-.595-16.403-.595-18.44-.822-2.038-.228-8.403 1.337-8.403 1.337Z"/><path fill="#2A2A2A" stroke="#2B2B2B" stroke-miterlimit="10" d="M107.034 170.567s-3.848-5.43-9.278-6.12a41.405 41.405 0 0 0-11.76.673s2.483-4.748 4.748-6.121a54.681 54.681 0 0 1 5.43-2.71 15.562 15.562 0 0 0-5.43-6.121c-3.847-2.483-10.187-6.331-10.187-6.331s8.15.674 11.997 1.81a44.534 44.534 0 0 1 8.149 3.62s-5.884-6.339-10.641-10.86c-4.757-4.52-14.707-12.906-14.707-12.906l-7.494-4.774a144.954 144.954 0 0 1 14.506 5.247c6.121 2.719 19.464 11.542 19.464 11.542s-5.657-9.531-11.77-17.663c-6.111-8.132-18.554-18.563-18.554-18.563l26.477 20.111-10.633-16.972-4.529-4.53s11.315 6.121 14.934 10.86c3.62 4.74 12.452 14.935 12.452 14.935S98.666 89.949 93.463 81.572C88.261 73.196 79.657 64.6 79.657 64.6s14.707 4.976 18.554 7.24c3.848 2.265 5.203 3.62 5.657 4.302.455.682-1.355-9.504-7.24-21.947-5.884-12.442-8.603-19.009-8.603-19.009s10.44 6.846 15.389 15.861 11.542 23.338 11.542 23.338-6.995-38.246-10.405-45.468c-3.411-7.223-10.187-17.19-10.187-17.19s16.744 12.896 20.111 28.058l3.392 15.153s-3.139-17.234-5.412-31.941c-2.273-14.707-2.711-21.274-2.711-21.956 0-.682 5.885 7.24 9.278 14.707a82.929 82.929 0 0 1 5.43 18.363c.454 2.483-.455-8.15 1.128-15.617 1.582-7.467 2.946-11.77 3.174-13.116.227-1.346 2.938 13.116 3.62 24.44.682 11.323.445 28.058.445 28.058s7.695-15.616 9.278-19.463c1.582-3.848 4.756-7.87 4.984-8.823a152.402 152.402 0 0 1-3.148 19.647 2629.833 2629.833 0 0 1-2.938 11.997l.227 5.885s13.991-26.232 19.237-34.399c5.246-8.167 13.99-15.162 13.99-15.162s-.874 4.984-6.995 22.184a194.646 194.646 0 0 1-15.844 33.707c-1.583 2.492-3.847 6.995-4.521 8.377-.673 1.381.446 10.86.446 10.86s12.242-7.24 21.729-11.77c9.487-4.529 26.922-7.685 26.922-7.685s-20.81 8.368-27.377 14.934c-6.566 6.567-20.364 17.418-20.364 17.418l.227 9.732s16.29-12.443 27.377-17.2c11.087-4.756 19.009-5.657 19.009-5.657l-29.187 20.4c-7.467 5.202-16.071 11.996-16.071 11.996s18.109-8.822 32.589-9.277c0 0-25.358 15.835-27.832 19.455-2.475 3.62-6.34 7.695-6.794 8.377-.455.682 11.769-4.075 18.782-5.885a128.498 128.498 0 0 1 14.707-2.719 65.634 65.634 0 0 0-20.111 9.059c-10.633 6.995-14.769 8.446-15.87 9.767l-1.102 1.32s23.311-8.377 28.968-9.732a35.576 35.576 0 0 1 11.761-.455s-16.001 2.431-23.39 9.619c-7.388 7.187-17.103 16.263-27.631 15.669-10.527-.595-16.403-.595-18.44-.822-2.038-.228-8.403 1.337-8.403 1.337Z" opacity=".2"/><path stroke="#2B2B2B" stroke-linecap="round" stroke-linejoin="round" d="M107.034 170.567s-3.848-5.43-9.278-6.12a41.405 41.405 0 0 0-11.76.673s2.483-4.748 4.748-6.121a54.681 54.681 0 0 1 5.43-2.71 15.562 15.562 0 0 0-5.43-6.121c-3.847-2.483-10.187-6.331-10.187-6.331s8.15.674 11.997 1.81a44.534 44.534 0 0 1 8.149 3.62s-5.884-6.339-10.641-10.86c-4.757-4.52-14.707-12.906-14.707-12.906l-7.494-4.774a144.954 144.954 0 0 1 14.506 5.247c6.121 2.719 19.464 11.542 19.464 11.542s-5.657-9.531-11.77-17.663c-6.111-8.132-18.554-18.563-18.554-18.563l26.477 20.111-10.633-16.972-4.529-4.53s11.315 6.121 14.934 10.86c3.62 4.74 12.452 14.935 12.452 14.935S98.666 89.949 93.463 81.572C88.261 73.196 79.657 64.6 79.657 64.6s14.707 4.976 18.554 7.24c3.848 2.265 5.203 3.62 5.657 4.302.455.682-1.355-9.504-7.24-21.947-5.884-12.442-8.603-19.009-8.603-19.009s10.44 6.846 15.389 15.861 11.542 23.338 11.542 23.338-6.995-38.246-10.405-45.468c-3.411-7.223-10.187-17.19-10.187-17.19s16.744 12.896 20.111 28.058l3.392 15.153s-3.139-17.234-5.412-31.941c-2.273-14.707-2.711-21.274-2.711-21.956 0-.682 5.885 7.24 9.278 14.707a82.929 82.929 0 0 1 5.43 18.363c.454 2.483-.455-8.15 1.128-15.617 1.582-7.467 2.946-11.77 3.174-13.116.227-1.346 2.938 13.116 3.62 24.44.682 11.323.445 28.058.445 28.058s7.695-15.616 9.278-19.463c1.582-3.848 4.756-7.87 4.984-8.823a152.402 152.402 0 0 1-3.148 19.647 2629.833 2629.833 0 0 1-2.938 11.997l.227 5.885s13.991-26.232 19.237-34.399c5.246-8.167 13.99-15.162 13.99-15.162s-.874 4.984-6.995 22.184a194.646 194.646 0 0 1-15.844 33.707c-1.583 2.492-3.847 6.995-4.521 8.377-.673 1.381.446 10.86.446 10.86s12.242-7.24 21.729-11.77c9.487-4.529 26.922-7.685 26.922-7.685s-20.81 8.368-27.377 14.934c-6.566 6.567-20.364 17.418-20.364 17.418l.227 9.732s16.29-12.443 27.377-17.2c11.087-4.756 19.009-5.657 19.009-5.657l-29.187 20.4c-7.467 5.202-16.071 11.996-16.071 11.996s18.109-8.822 32.589-9.277c0 0-25.358 15.835-27.832 19.455-2.475 3.62-6.34 7.695-6.794 8.377-.455.682 11.769-4.075 18.782-5.885a128.498 128.498 0 0 1 14.707-2.719 65.634 65.634 0 0 0-20.111 9.059c-10.633 6.995-14.769 8.446-15.87 9.767l-1.102 1.32s23.311-8.377 28.968-9.732a35.576 35.576 0 0 1 11.761-.455s-16.001 2.431-23.39 9.619c-7.388 7.187-17.103 16.263-27.631 15.669-10.527-.595-16.403-.595-18.44-.822-2.038-.228-8.403 1.337-8.403 1.337Z"/><path fill="#285E67" stroke="#2B2B2B" stroke-linecap="round" stroke-linejoin="round" d="M123.953 90.124s-.874-33.227 4.696-48.896c5.57-15.669 8.289-20.434 8.289-20.434s10.641 29.589 10.099 46.194c-.542 16.604-8.84 39.697-8.84 39.697l-14.244-16.561Z"/><path fill="#285E67" stroke="#2B2B2B" stroke-linecap="round" stroke-linejoin="round" d="M119.8 104.516s-8.657-17.147-7.214-36.986c1.443-19.84 3.611-28.698 2.702-34.827-.909-6.13-1.618-11.91-1.618-11.91s11.184 24.361 18.765 43.125a83.886 83.886 0 0 1 5.596 37.713c-.184 1.084-5.596 9.74-5.596 9.74l-3.786 9.741-8.849-16.596ZM118.899 129.419s-12.81-15.521-22.918-28.689a211.91 211.91 0 0 0-21.65-23.818s15.163 5.246 23.819 13.526c8.656 8.281 23.093 22.201 26.704 31.758 3.611 9.557.183 15.521.183 15.521l-6.138-8.298Z"/><path fill="#285E67" stroke="#2B2B2B" stroke-linecap="round" stroke-linejoin="round" d="M136.221 123.823s12.241-20.207 20.933-41.324c8.691-21.116 15.695-30.315 15.695-30.315s-26.52 24.186-31.574 33.227c-5.054 9.041-9.382 12.984-11.367 22.55-1.985 9.566.542 21.475.726 22.376.183.901 5.587-6.514 5.587-6.514ZM128.649 110.829s-3.612-17.138-13.177-29.773c-9.566-12.635-25.62-19.665-25.62-19.665s7.214.543 12.084 15.88c4.87 15.336 12.093 29.414 16.246 33.383 4.154 3.97 9.199 9.015 9.199 9.015l1.268-8.84Z"/><path fill="#285E67" stroke="#2B2B2B" stroke-linecap="round" stroke-linejoin="round" d="M118.899 129.419a88.271 88.271 0 0 1-9.942-9.024 95.461 95.461 0 0 0-9.198-8.665s5.771-.875 9.382 0c3.611.874 9.024 4.512 9.024 4.512a22.008 22.008 0 0 1-3.428-8.84c-.542-4.687-.542-6.672-.542-6.672a71.815 71.815 0 0 1 11.183 6.121c4.871 3.427 9.208 12.241 9.208 12.241s-1.268-2.885 5.587-10.825c6.855-7.939 18.406-12.451 18.406-12.451s-3.611 11.909-6.497 16.421a85.874 85.874 0 0 1-5.587 7.765s6.313-5.054 11-6.322c4.686-1.268 5.779-1.443 5.779-1.443s-4.371 7.397-6.12 9.924a111.811 111.811 0 0 1-9.199 10.493c-2.894 2.938-12.093 9.059-12.093 9.059l-7.939 4.153-9.024-16.447Z"/><path fill="#285E67" stroke="#2B2B2B" stroke-linecap="round" stroke-linejoin="round" d="M114.755 144.93s-4.512-3.06-4.696-10.825c-.184-7.764.184-13.526.184-13.526s6.995 2.343 11.367 5.246a20.89 20.89 0 0 1 6.313 6.497s.726-4.372 6.121-7.756c5.395-3.384 16.954-6.121 16.954-6.121s-1.443 8.84-3.06 14.253c-1.618 5.412-5.955 9.924-8.482 12.809-2.527 2.886-12.241 9.75-12.241 9.75l-12.46-10.327Z"/><path fill="#285E67" stroke="#2B2B2B" stroke-linecap="round" stroke-linejoin="round" d="M111.318 155.939s-3.786-6.313-5.771-10.283c-1.985-3.97-2.343-4.87-2.343-4.87a77.24 77.24 0 0 1 9.566 1.626 65.175 65.175 0 0 1 7.572 3.061s.367-3.787 4.695-7.756a47.33 47.33 0 0 1 8.298-6.121s4.871 5.596 5.247 8.849c.376 3.253.717 6.121.717 6.121l6.68-3.97a27.832 27.832 0 0 1-.726 11.008c-1.626 5.413-3.244 7.756-3.786 8.298-.668.51-1.397.935-2.168 1.268 0 0-.542 1.985-6.855.717-6.314-1.268-11.91-3.069-12.452-3.427-.542-.359-1.985-1.26-2.71-1.627-.726-.367-5.964-2.894-5.964-2.894Z"/><path fill="#285E67" stroke="#2B2B2B" stroke-linecap="round" stroke-linejoin="round" d="M101.394 167.131s-1.443-2.71-8.114-5.054a78.17 78.17 0 0 0-14.436-3.253s6.313-2.885 12.45-2.518c6.14.367 14.979 4.871 16.238 6.313 1.259 1.443.184-3.427-7.397-10.108-7.581-6.68-18.948-14.436-22.192-16.045a56.775 56.775 0 0 0-5.246-2.352s12.092-.175 20.932 4.871a96.26 96.26 0 0 1 15.521 11.192 40.125 40.125 0 0 0-9.74-16.063 88.288 88.288 0 0 0-13.72-11.367s11.55 4.512 19.307 9.925c7.755 5.412 22.192 21.116 22.192 21.116s2.526-11.909 11.909-19.49a54.11 54.11 0 0 1 19.7-9.933 32.747 32.747 0 0 1-4.512 14.436 107.167 107.167 0 0 1-7.223 10.825s13.894-8.298 20.216-9.924c6.322-1.627 12.976-3.236 12.976-3.236s-21.116 12.443-24.902 16.955c-3.787 4.512-4.871 5.954-4.871 5.954s9.382-3.786 13.894-4.87c4.512-1.084 12.626-1.259 12.626-1.259s-18.948 6.995-22.55 9.382c-3.603 2.387-10.292 5.955-10.292 5.955s-25.436-.726-30.848-.875c-5.412-.148-11.918-.577-11.918-.577Z"/><path fill="#285E67" stroke="#2B2B2B" stroke-linecap="round" stroke-linejoin="round" d="M113.487 172.902a10.212 10.212 0 0 1-.875-.761 21.663 21.663 0 0 1-4.704-6.82c-2.343-5.246-9.382-13.352-9.382-13.352 3.227.155 6.429.639 9.557 1.443a36.326 36.326 0 0 1 8.665 3.97 20.402 20.402 0 0 1 3.786-6.313l2.527-2.702s6.672 6.671 8.482 9.198a15.283 15.283 0 0 1 2.343 4.871s.875-3.244 9.741-4.512c8.866-1.268 17.864-3.603 17.864-3.603s-9.199 11.542-12.242 14.069a54.557 54.557 0 0 1-8.656 5.247l-27.106-.735Z"/><path fill="#285E67" stroke="#2B2B2B" stroke-linecap="round" stroke-linejoin="round" d="M111.502 176.872s-8.123-.542-12.242-4.154c-4.118-3.611-6.995-5.771-6.995-5.771s5.597-1.259 9.199.184c3.602 1.443 10.038 4.311 10.038 4.311s-.874-.359-1.626-4.512a40.14 40.14 0 0 1-.717-5.955s6.671.359 10.641 3.07c3.97 2.71 5.246 4.511 5.246 4.511s-2.168-.542 4.372-2.343a112.593 112.593 0 0 1 15.695-2.711s.542 3.244 1.085 7.398c.542 4.153-1.085 6.496-1.085 6.496l-33.611-.524Z"/><path fill="#FCE2D7" stroke="#2B2B2B" stroke-linecap="round" stroke-linejoin="round" d="M101.857 176.155c-9.093 3.497-16.237 7.135-22.961 14.611-10.737 11.935-14.462 29.432-15.31 45.092-1.356 25.112 1.381 55.436 11.06 78.87 4.923 11.891 15.687 23.739 29.196 25.357 6.558.796 17.89.796 23.259 1.189 5.369.394 5.955.402 13.903-.192 41.559-3.122 51.833-53.495 52.244-87.194.079-5.92-.07-11.892-.358-17.803-1.084-22.165-8.123-45.38-28.435-57.167a61.878 61.878 0 0 0-10.335-4.967l1.591-3.777s-3.174.201-4.372 1.189-4.967 1.994-4.967 1.994l-4.371-5.369-2.58 3.183-5.57-1.198-2.186 4.573-7.353-1.985-3.174 2.982-5.57-2.352a10.25 10.25 0 0 1-2.58 2.387c-1.39.787-7.554-.796-7.554-.796l-3.577 1.373Z"/><path fill="#FCE2D7" stroke="#2B2B2B" stroke-linecap="round" stroke-linejoin="round" d="M110.112 182.52c-2.921 4.923-8.123 10.082-13.886 11.542-5.762 1.46-6.461-7.117-1.119-11.664 5.343-4.547 13.885-4.442 17.637-6.689 3.751-2.247.288 1.854-2.632 6.811Z"/><path fill="#FCE2D7" stroke="#2B2B2B" stroke-linecap="round" stroke-linejoin="round" d="M109.709 183.159c-1.416-2.038-3.427-1.163-4.057-.98-.83.236 1.093-2.815 1.093-2.815s-3.733 4.127-7.677 2.824c-1.897-.629-2.737-.638-3.253-.437l-.708.647c-5.342 4.547-4.651 13.116 1.12 11.664 5.517-1.39 10.475-6.234 13.482-10.903ZM124.469 182.459c-.306 4.984-5.43 9.443-10.274 11.175-4.844 1.731-6.995-6.191-4.083-11.114 2.911-4.922 9.924-5.989 12.302-8.184 2.379-2.195 2.352 3.13 2.055 8.123Z"/><path fill="#FCE2D7" stroke="#2B2B2B" stroke-linecap="round" stroke-linejoin="round" d="M124.399 183.097a6.839 6.839 0 0 0-5.386-1.442c-1.049.096-1.32-3.218-1.32-3.218s-1.338 5.622-4.696 3.917c-1.617-.822-2.308-.822-2.623-.586-.06.26-.148.512-.262.752-2.921 4.923-.752 12.836 4.083 11.114 4.634-1.653 9.627-5.771 10.204-10.537ZM137.34 180.116c2.309 5.124-1.39 10.536-5.115 12.862-3.725 2.326-8.062-5.535-7.756-10.493.306-4.957 6.357-6.426 7.765-9.329 1.407-2.903 2.798 1.827 5.106 6.96Z"/><path fill="#FCE2D7" stroke="#2B2B2B" stroke-linecap="round" stroke-linejoin="round" d="M137.602 180.78c-2.929-1.748-4.529-.402-5.246-.166-.979.315-3.497-3.069-3.497-3.069s1.67 5.78-2.099 4.372c-1.81-.682-2.387-.586-2.51-.289.11.281.181.575.21.875-.306 4.984 4.04 12.845 7.756 10.493 3.576-2.239 7.196-7.319 5.386-12.216ZM150.054 181.06c4.931 4.835 4.092 6.374-.35 8.622-4.442 2.247-10.021-4.372-12.329-9.522-2.308-5.151 1.644-8.333 3.699-10.834 2.054-2.501 4.004 6.855 8.98 11.734Z"/><path fill="#FCE2D7" stroke="#2B2B2B" stroke-linecap="round" stroke-linejoin="round" d="M150.622 181.637c-3.017-2.474-3.821-2.71-4.94-3.681-1.478-1.268-6.724-4.057-6.724-4.057s4.372 6.68.131 5.412c-2.055-.603-2.501-.454-2.44-.113.261.282.492.589.691.918 2.309 5.124 7.87 11.778 12.329 9.522 4.25-2.151 5.264-3.48.953-8.001Z"/><path fill="#FCE2D7" stroke="#2B2B2B" stroke-linecap="round" stroke-linejoin="round" d="M164.254 179.136c7.257 4.372 7.616 10.423 1.818 12.172-5.797 1.749-11.122-5.456-16.018-10.248-4.897-4.792-4.626-6.733-.682-8.298 3.943-1.565 7.624 1.976 14.882 6.374Z"/><path fill="#FCE2D7" stroke="#2B2B2B" stroke-linecap="round" stroke-linejoin="round" d="M165.163 179.705c-3.427-.997-5.246.673-6.671.752-1.837.113-10.213-3.55-10.213-3.55s5.762 6.925 2.098 4.293c-1.749-1.268-1.871-1.373-1.53-1.11.341.262.936.699 1.172.926 4.931 4.836 10.256 12.041 16.053 10.292 5.544-1.67 5.57-7.327-.909-11.603ZM95.632 195.295c-2.79 6.313-8.534 13.3-16.054 11.804-5.736-1.145-7.616-7.257-2.833-13.526 4.04-5.299 11.962-10.607 17.383-10.327 3.567.192 4.468 5.334 1.504 12.049Z"/><path fill="#FCE2D7" stroke="#2B2B2B" stroke-linecap="round" stroke-linejoin="round" d="M95.195 196.187c-2.318-1.111-5.684-.971-6.9-1.801-1.608-1.085.753-6.471.753-6.471s-3.035 4.311-7.87 4.259c-2.334 0-3.261.227-3.725.542-.236.288-.472.568-.69.874-4.775 6.313-3.06 12.145 2.832 13.527 5.605 1.294 12.312-4.363 15.6-10.93ZM113.959 194.893c-1.294 6.934-6.742 14.585-12.67 13.492s-8.822-6.296-5.657-13.116c3.165-6.82 9.767-13.116 13.99-11.848 4.223 1.268 5.622 4.538 4.337 11.472Z"/><path fill="#FCE2D7" stroke="#2B2B2B" stroke-linecap="round" stroke-linejoin="round" d="M113.758 195.802c-2.326-.979-5.369.14-6.532-.699-1.539-1.111-.743-6.716-.743-6.716s-3.253 3.76-6.82 4.46a8.27 8.27 0 0 0-3.55 1.513c-.166.306-.332.62-.481.935-3.166 6.794-.263 11.997 5.657 13.116 5.675 1.014 10.956-5.893 12.469-12.609ZM132.33 194.246c.559 6.995-3.113 14.777-9.216 14.077-6.103-.699-10.449-6.496-9.155-13.43 1.294-6.934 6.121-12.381 10.449-11.498 4.328.883 7.371 3.891 7.922 10.851Z"/><path fill="#FCE2D7" stroke="#2B2B2B" stroke-linecap="round" stroke-linejoin="round" d="M132.382 195.164c-2.212-.665-4.922.437-6.225-.315-1.749-.988-2.693-6.444-2.693-6.444a9.617 9.617 0 0 1-6.121 4.083c-1.985.385-2.833.953-3.209 1.443-.079.315-.158.638-.21.962-1.294 6.934 3.043 12.74 9.155 13.431 5.867.717 9.557-6.375 9.303-13.16ZM150.141 190.906c2.527 6.995-.367 15.739-6.733 15.345-6.365-.393-10.492-5.036-11.078-12.005-.586-6.969.97-13.85 5.421-13.177 4.451.673 9.863 2.859 12.39 9.837Z"/><path fill="#FCE2D7" stroke="#2B2B2B" stroke-linecap="round" stroke-linejoin="round" d="M150.43 191.833c-3.096-.7-5.247 1.355-6.759.682-2.011-.875-4.757-6.314-4.757-6.314s-.778 3.874-4.223 5.247c-1.653.656-2.212 1.32-2.414 1.845 0 .323 0 .647.053.97.56 6.995 4.722 11.595 11.078 12.006 6.086.376 9.033-7.642 7.022-14.436ZM166.886 192.471c4.372 6.365 1.897 14.593-3.297 13.334-5.194-1.259-10.921-7.913-13.448-14.864-2.527-6.952-2.553-11.131.77-8.98 3.322 2.151 11.629 4.136 15.975 10.51Z"/><path fill="#FCE2D7" stroke="#2B2B2B" stroke-linecap="round" stroke-linejoin="round" d="M167.393 193.301c-4.258-.778-5.657.936-7.048 0-1.836-1.232-5.937-6.697-5.937-6.697s2.352 5.089-1.827 2.754c-2.011-1.119-2.623.061-2.763.586.105.315.201.638.323.962 2.527 6.995 8.246 13.631 13.448 14.864 4.967 1.242 7.398-6.269 3.804-12.469ZM101.63 210.422c-1.032 7.083-6.995 14.664-12.932 15.179-6.4.569-10.842-9.854-9.024-16.499 1.749-6.488 9.986-11.201 15.88-12.347 5.447-1.058 7.283 5.562 6.076 13.667Z"/><path fill="#FCE2D7" stroke="#2B2B2B" stroke-linecap="round" stroke-linejoin="round" d="M101.429 211.471c-2.885-2.754-5.91-1.617-7.152-1.932-1.644-.402-1.75-6.121-1.75-6.121s-2.351 6.995-8.061 5.115c-2.746-.874-3.882-.874-4.372-.516-.131.35-.262.709-.367 1.076-1.941 6.707 2.08 16.613 9.023 16.5 5.728-.114 11.123-6.453 12.679-14.122ZM123.761 210.326a15.417 15.417 0 0 1-12.058 15.328c-7.957 1.906-11.017-9.242-10.073-15.267 1.285-8.175 7.511-12.373 12.582-14.06 5.072-1.688 9.558 5.876 9.549 13.999Z"/><path fill="#FCE2D7" stroke="#2B2B2B" stroke-linecap="round" stroke-linejoin="round" d="M123.708 211.375c-3.252-2.553-6.785-1.749-8.21-2.02-1.871-.358-2.807-6.182-2.807-6.182s-1.53 8.228-6.82 6.453c-2.545-.874-3.576-.708-4.013-.323-.088.367-.167.734-.228 1.119-.944 6.025 1.836 16.981 10.073 15.267a15.29 15.29 0 0 0 12.005-14.314ZM144.379 208.236c1.119 8.254-4.661 15.057-9.802 16.893-5.141 1.836-10.895-6.619-10.816-14.803.079-8.184 5.194-12.381 9.137-14.664 3.944-2.282 10.362 4.32 11.481 12.574Z"/><path fill="#FCE2D7" stroke="#2B2B2B" stroke-linecap="round" stroke-linejoin="round" d="M144.484 209.294c-3.716-2.405-7.065-.743-8.307-.874-1.644-.166-3.253-5.859-3.253-5.859s-.096 8.202-5.246 6.733c-2.466-.708-3.497-.498-3.882-.087 0 .367-.053.734-.053 1.119-.078 8.184 5.675 16.613 10.817 14.803 4.931-1.757 10.51-8.044 9.924-15.835ZM164.717 207.79c2.405 7.738-1.311 12.084-7.161 14.043-7.677 2.579-12.346-7.494-13.177-13.597-1.119-8.254 3.27-15.363 6.855-15.905 4.8-.726 11.682 9.627 13.483 15.459Z"/><path fill="#FCE2D7" stroke="#2B2B2B" stroke-linecap="round" stroke-linejoin="round" d="M164.98 208.796c-3.411-2.728-5.833-1.906-7.328-2.903-1.967-1.303-4.931-6.654-4.931-6.654s1.294 8.813-4.372 7.712c-2.728-.534-3.751-.28-4.075.157 0 .367.061.743.114 1.128.874 6.121 5.5 16.176 13.177 13.597 5.605-1.88 9.19-5.649 7.415-13.037ZM185.414 203.593c2.938 5.902-.271 15.258-6.514 17.488-7.87 2.754-12.408-7.179-14.183-13.265-2.282-7.869-1.959-12.241 3.821-13.99 7.1-2.195 13.973 3.926 16.876 9.767Z"/><path fill="#FCE2D7" stroke="#2B2B2B" stroke-linecap="round" stroke-linejoin="round" d="M185.799 204.555c-3.052-1.417-6.549.874-8.15.874-2.124-.043-6.365-5.325-6.365-5.325s.184 6.995-3.69 6.89c-1.862-.061-2.982-.638-3.165-.279.096.349.183.708.288 1.075 1.749 6.121 6.051 15.87 14.183 13.265 6.287-2.029 9.557-9.444 6.899-16.5ZM88.27 229.632c-.875 6.567-5.658 15.564-13.212 13.064-6.121-2.02-10.747-9.846-9.741-16.727 1.163-7.87 7.117-14.471 13.352-13.116 6.846 1.521 10.405 10.659 9.6 16.779Z"/><path fill="#FCE2D7" stroke="#2B2B2B" stroke-linecap="round" stroke-linejoin="round" d="M88.13 230.734c-3.428-1.836-6.996-1.312-8.648-2.352-2.23-1.373-3.017-8.377-3.017-8.377s-.935 6.034-6.601 4.801c-2.729-.595-3.953-.315-4.372.07-.07.367-.14.725-.193 1.093-1.005 6.881 3.568 14.602 9.741 16.727 5.815 1.993 11.918-3.883 13.09-11.962ZM111.581 229.807c-.202 6.995-4.469 16.867-12.618 15.608-6.899-1.075-11.49-8.901-10.685-15.783.708-6.05 4.862-16.674 12.801-15.301 6.13 1.066 10.738 6.759 10.502 15.476Z"/><path fill="#FCE2D7" stroke="#2B2B2B" stroke-linecap="round" stroke-linejoin="round" d="M111.493 230.9c-3.41-1.652-6.995.07-8.621-.874-2.151-1.216-3.35-8.289-3.35-8.289s-2.036 5.928-6.924 5.604c-2.352-.166-3.699.516-4.162 1.05-.062.393-.123.787-.167 1.18-.69 6.943 3.778 14.699 10.686 15.783 7.738 1.285 12.031-7.686 12.538-14.454ZM134.708 229.274c.236 6.899-2.623 17.059-10.921 16.272-7.231-.682-12.574-8.385-12.241-15.739.332-6.995 3.908-16.228 12.154-15.573 6.138.49 10.72 6.261 11.008 15.04Z"/><path fill="#FCE2D7" stroke="#2B2B2B" stroke-linecap="round" stroke-linejoin="round" d="M134.708 230.419c-2.842-1.416-6.217.298-7.799-.542-2.081-1.119-3.909-8.114-3.909-8.114s-1.014 7.205-7.074 5.762c-2.911-.691-3.865.507-4.275 1.067 0 .402-.062.813-.079 1.215-.306 7.301 4.87 14.926 12.241 15.739 6.13.691 10.79-6.733 10.895-15.127ZM158.028 226.012c.7 6.934-2.151 18.109-10.912 17.943-8.08-.158-12.338-7.266-12.408-14.681-.052-6.226 1.487-17.663 10.178-17.094 6.471.419 12.25 4.984 13.142 13.832Z"/><path fill="#FCE2D7" stroke="#2B2B2B" stroke-linecap="round" stroke-linejoin="round" d="M158.098 227.167c-3.427-1.251-6.575 1.337-8.35.612-2.335-.962-4.801-7.966-4.801-7.966s-1.95 5.902-6.802 6.637c-2.335.349-3.131.996-3.437 1.6v1.224c.079 7.397 4.311 14.497 12.408 14.681 8.333.183 11.306-10.091 10.982-16.788ZM179.617 224.946c.97 6.12-2.536 17.444-9.409 17.243-6.872-.202-11.48-9.461-12.18-16.177-.935-8.848 2.326-15.529 7.73-14.453 5.403 1.075 12.565 5.167 13.859 13.387Z"/><path fill="#FCE2D7" stroke="#2B2B2B" stroke-linecap="round" stroke-linejoin="round" d="M179.783 226.03c-3.856-1.049-6.707 1.53-8.228.726-2.02-1.076-4.722-7.949-4.722-7.949s.263 7.1-5.027 5.404c-2.554-.822-3.498-.061-3.83.56 0 .411 0 .83.087 1.241.7 6.716 4.975 15.547 12.18 16.177 5.378.472 10.309-8.211 9.54-16.159ZM99.26 247.514c-.096 7.082-5.412 15.38-11.882 15.126-6.9-.271-12.172-10.545-12.023-17.898.166-8.193 6.33-12.285 13.116-13.116 7.817-1.006 10.868 9.985 10.79 15.888Z"/><path fill="#FCE2D7" stroke="#2B2B2B" stroke-linecap="round" stroke-linejoin="round" d="M99.19 248.633c-3.497-2.798-6.802-1.688-8.324-2.256-2.002-.752-3.672-7.126-3.672-7.126s-1.067 7.362-7.231 5.124c-2.964-1.085-4.101-1.102-4.52-.752 0 .367-.08.743-.088 1.119-.149 7.353 4.739 17.243 12.023 17.898 5.84.525 11.192-5.858 11.813-14.007ZM124.154 247.662c.053 7.747-4.686 15.083-12.538 16.019-8.316.997-12.47-9.207-12.355-16.167.13-7.87 6.033-14.41 12.617-15.739 7.196-1.417 12.233 9.181 12.276 15.887Z"/><path fill="#FCE2D7" stroke="#2B2B2B" stroke-linecap="round" stroke-linejoin="round" d="M124.111 248.808c-3.498-2.623-7.424-1.618-9.112-2.064-2.22-.586-4.004-7.065-4.004-7.065s-1.146 8.447-7.214 6.803c-2.92-.787-4.022-.595-4.442-.158 0 .385-.07.787-.079 1.19-.166 6.995 3.9 16.858 12.356 16.167 6.864-.56 12.739-8.193 12.495-14.873ZM147.562 246.097c.236 7.87-5.789 15.931-12.119 17.584-6.628 1.749-11.018-10.108-11.289-16.019-.297-6.496 5.168-14.532 10.904-16.403 6.899-2.247 12.32 8.953 12.504 14.838Z"/><path fill="#FCE2D7" stroke="#2B2B2B" stroke-linecap="round" stroke-linejoin="round" d="M147.544 247.269c-3.847-2.475-8.062-.726-9.478-1.058-1.88-.429-3.402-6.917-3.402-6.917s-.874 8.543-6.278 7.109c-2.623-.691-3.777-.42-4.188 0 0 .402-.044.804-.044 1.215 0 6.121 4.617 17.733 11.289 16.019 5.98-1.486 12.101-8.822 12.101-16.368ZM170.645 244.287c.403 6.995-3.209 15.057-10.597 16.544-8.062 1.617-12.32-8.255-12.486-14.734-.193-7.441 5.473-17.085 10.999-18.108 5.719-1.058 11.7 9.618 12.084 16.298Z"/><path fill="#FCE2D7" stroke="#2B2B2B" stroke-linecap="round" stroke-linejoin="round" d="M170.663 245.433c-3.27-2.449-6.444-.971-8.009-1.81-2.073-1.111-4.136-7.476-4.136-7.476s-.149 9.198-6.34 8.297c-2.981-.428-4.179-.096-4.599.403v1.25c.14 6.505 4.372 16.928 12.486 14.733 5.955-1.617 10.607-7.065 10.598-15.397ZM192.741 238.053c.402 7.922-3.497 16.561-10.492 19.7-5.833 2.623-11.079-4.687-11.612-13.466-.411-6.759 2.623-15.171 9.618-17.488 6.567-2.186 12.067 2.79 12.486 11.254Z"/><path fill="#FCE2D7" stroke="#2B2B2B" stroke-linecap="round" stroke-linejoin="round" d="M192.759 239.163c-2.536-1.32-6.462 1.434-8.001 1.373-2.037-.088-4.276-6.06-4.276-6.06s-1.451 7.809-6.12 8.097c-2.265.14-3.375 0-3.716.499v1.215c.445 8.875 5.762 16.08 11.611 13.466 6.628-2.973 10.642-11 10.502-18.59ZM87.028 265.596c.175 8.595-5.509 15.337-11.157 12.845-6.523-2.886-11.166-11.525-11.542-18.957-.411-8.237 4.214-13.99 10.597-12.005 7.739 2.413 11.936 10.309 12.102 18.117Z"/><path fill="#FCE2D7" stroke="#2B2B2B" stroke-linecap="round" stroke-linejoin="round" d="M86.993 266.75c-3.629-2.37-6.995-1.924-8.744-3.087-2.265-1.538-4.11-8.857-4.11-8.857s-.174 6.4-5.762 4.214c-2.693-1.049-3.768-.97-4.083-.62v1.119c.376 7.432 5.019 16.071 11.542 18.957 5.438 2.352 10.825-3.594 11.157-11.726ZM111.257 266.75c0 6.995-4.372 16.893-12.18 15.888-7.188-.936-11.98-9.846-12.05-17.007-.07-6.401 3.927-16.57 11.805-15.153 7.441 1.311 12.416 8.656 12.425 16.272Z"/><path fill="#FCE2D7" stroke="#2B2B2B" stroke-linecap="round" stroke-linejoin="round" d="M111.222 267.843c-3.725-1.932-7.423-.297-9.146-1.18-2.273-1.172-4.066-8.421-4.066-8.421s-1.355 6.637-6.706 5.693c-2.571-.464-3.83 0-4.241.472 0 .393-.044.787 0 1.189.105 7.196 4.757 15.949 12.049 17.007 6.89.997 12.259-8.552 12.11-14.76ZM135.189 266.75c-.061 6.82-3.323 16.745-11.122 16.264-7.275-.455-12.766-8.832-12.775-16.273-.009-7.441 4.538-16.858 12.539-16.045 7.196.709 11.358 8.832 11.358 16.054Z"/><path fill="#FCE2D7" stroke="#2B2B2B" stroke-linecap="round" stroke-linejoin="round" d="M135.119 267.861c-2.912-1.749-6.479-.14-8.044-.953-2.064-1.076-3.987-8.281-3.987-8.281s-.875 7.441-7.249 6.121c-3.052-.647-4.127.253-4.547.787v1.206c.044 7.424 5.246 15.53 12.775 16.273 5.946.559 10.711-6.864 11.052-15.153ZM159.751 263.891c-.053 7.284-3.778 17.671-12.286 18.03-8.507.358-12.39-7.791-12.276-15.171.07-7.24 2.973-18.056 12.084-17.488 7.721.403 12.521 6.996 12.478 14.629Z"/><path fill="#FCE2D7" stroke="#2B2B2B" stroke-linecap="round" stroke-linejoin="round" d="M159.716 265.001c-3.393-1.329-6.899 1.085-8.674.429-2.344-.875-4.433-8.053-4.433-8.053s-2.554 6.697-7.756 6.934c-2.501.104-3.332.647-3.664 1.197v1.198c-.079 7.406 3.874 15.521 12.311 15.197 8.088-.288 11.866-9.907 12.216-16.902ZM181.925 260.629c-.105 6.759-4.171 16.867-11.209 18.196-5.492 1.032-10.825-6.321-10.965-14.925-.114-6.646 2.911-16.456 10.711-16.614 5.762-.061 11.586 5.474 11.463 13.343Z"/><path fill="#FCE2D7" stroke="#2B2B2B" stroke-linecap="round" stroke-linejoin="round" d="M181.881 261.661c-3.366-.874-6.531 1.801-8.009 1.251-1.95-.717-3.769-7.616-3.769-7.616s-.752 7.537-6.234 6.584c-2.623-.455-3.716.227-4.092.813v1.198c.096 8.648 5.412 15.922 10.965 14.926 6.75-1.216 10.597-10.668 11.139-17.156ZM99.523 285.235c.297 8.962-4.74 16.018-10.335 14.786-7.275-1.609-12.023-11.49-12.767-18.957-.874-8.569 4.372-13.116 11.01-12.95 7.956.219 11.856 10.283 12.092 17.121Z"/><path fill="#FCE2D7" stroke="#2B2B2B" stroke-linecap="round" stroke-linejoin="round" d="M99.523 286.38c-3.498-2.754-6.794-1.609-8.368-2.387-2.09-1.032-4.25-8.071-4.25-8.071s-.56 7.599-6.383 4.958c-2.806-1.268-3.82-1.338-4.162-.997 0 .385 0 .779.061 1.181.744 7.467 5.492 17.348 12.766 18.957 5.36 1.18 10.222-5.238 10.336-13.641ZM124.408 285.619c.07 7.345-4.188 15.739-12.023 16.098-8.114.402-12.521-9.382-12.862-16.482-.376-7.782 4.835-15.232 12.145-16.028 7.835-.857 12.67 9.234 12.74 16.412Z"/><path fill="#FCE2D7" stroke="#2B2B2B" stroke-linecap="round" stroke-linejoin="round" d="M124.373 286.782c-3.41-2.623-7.257-1.311-8.997-1.888-2.291-.77-4.372-7.686-4.372-7.686s-1.023 8.307-7.118 6.811c-2.938-.717-3.996-.481-4.372 0v1.233c.245 7.205 4.512 16.675 12.862 16.482 6.978-.183 12.321-8.49 11.997-14.952Z"/><path fill="#FCE2D7" stroke="#2B2B2B" stroke-linecap="round" stroke-linejoin="round" d="M147.807 284.553c-.202 7.537-6.523 16.499-12.836 17.435-6.314.935-10.493-10.187-10.563-16.369-.123-7.773 4.459-14.864 11.052-16.429 6.593-1.566 12.513 8.927 12.347 15.363Z"/><path fill="#FCE2D7" stroke="#2B2B2B" stroke-linecap="round" stroke-linejoin="round" d="M147.728 285.733c-3.699-2.352-8.193-.507-9.618-.979-1.88-.621-3.262-7.503-3.262-7.503s-1.329 8.307-6.418 6.996c-2.439-.639-3.602-.333-3.987.148 0 .402-.044.822 0 1.242.052 6.208 4.118 17.287 10.562 16.368 5.938-.865 12.373-9.023 12.723-16.272ZM170.925 281.317c-.489 7.328-4.45 16.107-12.049 17.952-7.869 1.923-11.227-8.674-11.069-14.716.183-7.747 5.779-16.911 12.311-18.249 6.532-1.338 11.236 8.525 10.807 15.013Z"/><path fill="#FCE2D7" stroke="#2B2B2B" stroke-linecap="round" stroke-linejoin="round" d="M170.82 282.489c-2.973-1.906-6.321.053-7.869-.577-2.002-.822-3.585-7.45-3.585-7.45s-.875 8.867-6.917 8.254c-2.929-.288-4.153.079-4.599.604 0 .411-.061.83-.07 1.259-.175 6.068 3.139 16.613 11.07 14.716 7.249-1.766 11.227-9.811 11.97-16.806ZM191.753 273.168c-1.014 7.948-5.395 16.683-12.11 20.47-5.098 2.876-9.12-3.498-8.744-12.321.332-7.318 4.171-15.66 11.367-18.519 6.261-2.492 10.545 2.028 9.487 10.37Z"/><path fill="#FCE2D7" stroke="#2B2B2B" stroke-linecap="round" stroke-linejoin="round" d="M191.587 274.27c-2.168-.874-5.823 2.107-7.17 2.125-1.749 0-3.043-5.964-3.043-5.964s-1.897 7.87-6.601 8.587c-2.265.341-3.367.542-3.751 1.084 0 .402-.079.805-.097 1.215-.463 8.841 3.603 15.197 8.744 12.321 6.392-3.603 10.607-11.805 11.918-19.368ZM89.336 304.725c1.014 8.481-2.964 13.885-7.572 10.973-6.12-3.873-10.667-12.241-12.46-19.472-1.95-7.87 1.425-12.994 7.249-10.493 7.397 3.078 11.848 11.149 12.783 18.992Z"/><path fill="#FCE2D7" stroke="#2B2B2B" stroke-linecap="round" stroke-linejoin="round" d="M89.424 305.818c-3.498-2.825-6.348-2.484-7.922-3.743-2.072-1.652-4.643-9.015-4.643-9.015s.498 6.506-4.372 3.428c-2.361-1.478-3.183-1.609-3.375-1.338.07.359.13.717.227 1.076 1.749 7.257 6.33 15.599 12.46 19.472 4.372 2.79 8.14-1.932 7.625-9.88ZM112.166 306.613c.263 8.744-5.386 15.809-10.606 14.961-6.995-1.136-11.42-10.055-12.241-16.849-.997-8.508 3.943-15.477 10.029-14.576 7.546 1.084 12.6 8.892 12.818 16.464Z"/><path fill="#FCE2D7" stroke="#2B2B2B" stroke-linecap="round" stroke-linejoin="round" d="M112.166 307.75c-3.663-2.203-7.161-.621-8.813-1.46-2.178-1.093-4.267-8.237-4.267-8.237s-.682 7.118-5.938 5.588c-2.526-.735-3.576-.516-3.9-.097 0 .394 0 .787.088 1.181.805 6.794 5.194 15.739 12.242 16.849 4.975.813 10.422-5.57 10.588-13.824ZM134.481 306.972c-.525 8.805-5.246 15.949-10.493 15.433-7.126-.7-11.577-8.936-11.795-15.8-.228-7.232 4.372-16.614 11.918-16.028 7.143.586 10.79 9.4 10.37 16.395Z"/><path fill="#FCE2D7" stroke="#2B2B2B" stroke-linecap="round" stroke-linejoin="round" d="M134.402 308.135c-2.579-2.099-6.051-.551-7.415-1.347-1.81-1.049-3.558-8.175-3.558-8.175s-.805 7.458-6.838 6.243c-2.912-.586-4.022 0-4.372.542v1.215c.218 6.873 4.669 15.101 11.795 15.801 5.054.498 9.662-5.824 10.388-14.279ZM158.054 304.349c-1.189 6.803-5.325 16.972-13.229 17.697-6.121.56-10.685-6.199-10.344-15.1.297-7.572 3.847-17.138 12.792-17.357 7.223-.105 11.866 8.543 10.781 14.76Z"/><path fill="#FCE2D7" stroke="#2B2B2B" stroke-linecap="round" stroke-linejoin="round" d="M157.923 305.564c-2.929-1.539-6.514.813-8.114.219-2.125-.796-3.603-7.931-3.603-7.931s-3.121 7.327-8.105 7.048c-2.396-.131-3.157.314-3.498.874 0 .411-.07.822-.096 1.233-.393 8.954 4.188 15.643 10.344 15.101 7.502-.691 11.927-9.654 13.072-16.544ZM178.462 298.525c-1.521 7.197-6.12 16.474-12.905 19.237-4.722 1.906-8.43-4.32-7.503-13.352.743-7.275 4.617-16.613 12.242-18.126 5.561-1.172 9.95 3.812 8.166 12.241Z"/><path fill="#FCE2D7" stroke="#2B2B2B" stroke-linecap="round" stroke-linejoin="round" d="M178.209 299.645c-2.405-.814-5.614 2.081-6.864 1.748-1.653-.419-2.37-7.073-2.37-7.073s-1.748 7.817-6.794 7.633c-2.448-.096-3.497.551-3.952 1.163-.07.42-.131.874-.175 1.259-.97 9.067 2.746 15.241 7.503 13.352 6.531-2.58 10.842-11.253 12.652-18.082ZM102.33 326.051c.874 7.922-1.653 13.798-5.833 11.813-6.313-2.99-11.297-10.93-13.334-17.776-2.203-7.424 1.312-11.831 7.056-10.624 7.118 1.495 11.367 9.671 12.111 16.587Z"/><path fill="#FCE2D7" stroke="#2B2B2B" stroke-linecap="round" stroke-linejoin="round" d="M102.4 327.083c-3.087-2.396-5.868-1.504-7.31-2.422-1.906-1.216-4.477-7.87-4.477-7.87s.254 6.681-4.495 3.708c-2.282-1.434-3.025-1.635-3.209-1.382.08.341.158.682.254 1.032 2.037 6.846 6.995 14.786 13.335 17.776 3.995 1.837 6.339-3.506 5.902-10.842ZM124.163 326.917c-.271 7.974-3.716 13.745-9.408 13.544-5.693-.201-11.568-6.479-12.425-14.41-.857-7.931 3.864-14.62 10.379-14.628 7.685-.018 11.681 8.595 11.454 15.494Z"/><path fill="#FCE2D7" stroke="#2B2B2B" stroke-linecap="round" stroke-linejoin="round" d="M124.093 327.957c-2.737-2.273-6.121-.953-7.703-1.591-2.081-.874-4.119-7.31-4.119-7.31s-.874 7.109-6.269 5.867c-2.623-.594-3.498-.367-3.751.044 0 .358 0 .717.079 1.093.874 7.931 6.741 14.209 12.425 14.41 5.447.183 8.778-5.063 9.338-12.513ZM144.501 326.646c-1.294 8.175-8.49 14.611-12.329 14.576-3.838-.035-8.228-6.278-8.009-14.305.219-8.027 5.351-14.603 10.353-15.066 5.001-.463 11.279 6.61 9.985 14.795Z"/><path fill="#FCE2D7" stroke="#2B2B2B" stroke-linecap="round" stroke-linejoin="round" d="M144.291 327.695c-2.92-1.95-7.406-.236-8.586-.796-1.556-.743-2.212-7.266-2.212-7.266s-2.099 7.161-6.016 6.016c-1.889-.56-2.912-.271-3.253.166 0 .367-.052.735-.061 1.102-.219 8.027 4.171 14.27 8.009 14.305 3.673.035 10.467-5.876 12.119-13.527ZM164.612 322.064c-2.028 6.54-6.715 14.418-13.116 16.771-4.494 1.643-8.315-4.031-6.995-12.189 1.19-7.424 6.217-15.127 13.3-17.392 5.648-1.801 9.233 5.028 6.811 12.81Z"/><path fill="#FCE2D7" stroke="#2B2B2B" stroke-linecap="round" stroke-linejoin="round" d="M164.28 323.087c-1.967-1.084-5.246 1.18-6.418.874-1.565-.428-1.871-6.671-1.871-6.671s-2.029 7.747-7.196 7.502c-2.484-.114-3.62.254-4.075.734-.079.376-.158.752-.219 1.137-1.294 8.176 2.16 13.667 6.995 12.189 4.678-1.434 10.178-8.272 12.784-15.765ZM180.99 312.017a64.704 64.704 0 0 1-14.104 18.563c-3.498 3.052-4.617-.603-2.274-8.481 2.169-7.258 6.497-15.284 13.116-19.009 5.072-2.886 7.03 1.591 3.262 8.927Z"/><path fill="#FCE2D7" stroke="#2B2B2B" stroke-linecap="round" stroke-linejoin="round" d="M180.474 312.996c-.98-.201-4.119 2.86-4.958 3.017-1.119.201-.315-5.246-.315-5.246s-3.043 7.327-6.934 8.551c-1.871.595-2.859 1.111-3.296 1.67-.123.368-.245.735-.359 1.102-2.352 7.87-1.206 11.533 2.274 8.482 5.368-4.74 10.003-11.166 13.588-17.576Z"/><path fill="#285E67" stroke="#2B2B2B" stroke-linecap="round" stroke-linejoin="round" d="m90.01 214.75 17.26 7.258c12.504 5.246 26.511 18.003 31.014 38.516 4.503 20.514-1.25 43.265-9.216 56.066-7.965 12.801-19.761 20.985-39.024 27.508-19.262 6.523-34.765 5.247-48.764-.244-14-5.492-22.516-12.242-26.232-19.01-3.716-6.767-11.07-38.315-.524-61.819 10.545-23.503 38.018-33.515 50.522-37.773a230.635 230.635 0 0 0 24.963-10.502Z"/><path fill="#2B2B2B" d="M127.529 253.521c-3.497-8.744-5.246-16.01-10.754-21.266-5.509-5.255-17.007-10.973-21.257-13.754-4.25-2.78-4.757-3.751-7.257-3.751-2.501 0-3.498-.498-4.25 0a22.766 22.766 0 0 0-2.256 2.003s-6.995-.499-8.744-1.006c-1.748-.507-3.497-2.501-6.995-1.25-3.497 1.25-4.748 0-13.99 3.497-9.242 3.498-14.541 4.259-23.512 10.283-8.971 6.025-19.01 21.256-22.262 27.01C2.999 261.04 0 282.297 0 290.306c0 8.01 6.252 25.506 9.006 29.511 2.755 4.004 18.502 15.258 29.012 19.236 10.51 3.979 25.008 4.503 32.764 2.256 7.755-2.247 17.758-4.258 28.758-12.504 11-8.245 22.009-30.017 26.013-39.024 4.005-9.006 5.474-27.508 1.976-36.26Z"/><path fill="#F4F4F4" d="M75.503 218.257s-.323-.088-.918-.193a38.477 38.477 0 0 0-16.333.691c-9.007 2.501-21.764 7.502-28.768 12.757-7.004 5.255-19.009 21.755-22.506 31.006-3.498 9.251-4.005 27.771-2.501 35.273 1.504 7.502 3.751 18.799 17.042 27.762 13.29 8.962 29.51 16.001 37.764 14.506 8.255-1.495 20.758-6.252 27.762-9.006 7.004-2.755 21.764-19.237 26.512-26.765 4.748-7.529 8.744-23.259 8.744-38.762s-4.748-27.517-9.75-33.515c-5.001-5.999-18.257-11.254-24.01-12.242-5.754-.988-13.038-1.512-13.038-1.512Z"/><path fill="#F4F4F4" d="M122.274 265.526a71.126 71.126 0 0 0-1.04-12.241c-3.445-5.675-11.839-18.179-16.963-19.036-6.007-.988-28.54-2.737-28.54-2.737l-16.255 1.495s-7.109 4.696-11.498 7.87a51.293 51.293 0 0 1 24.78 12.032c12.46 11.367 12.46 33.419 7.082 43.623-5.377 10.204-15.861 18.406-29.178 19.236-7.335.439-14.696.179-21.982-.778a8.517 8.517 0 0 0 2.308 3.349c6.75 6.75 9.505 15.004 30.263 17.007 3.838.376 8.07.594 12.434.691a398.123 398.123 0 0 0 13.325-4.941c6.995-2.754 21.764-19.236 26.512-26.765 4.748-7.528 8.752-23.302 8.752-38.805Z"/><path fill="#F4F4F4" d="M75.503 218.257s-.323-.088-.918-.193a38.477 38.477 0 0 0-16.333.691c-9.007 2.501-21.764 7.502-28.768 12.757-7.004 5.255-19.009 21.755-22.506 31.006-3.498 9.251-4.005 27.771-2.501 35.273 1.504 7.502 3.751 18.799 17.042 27.762a119.18 119.18 0 0 0 14.707 8.525 53.573 53.573 0 0 0 4.512-7.782c2.002-4.25 3.008-5.5 2.256-7.502-.752-2.003-2.003-5.754-2.003-5.754a23.028 23.028 0 0 1-10.729-7.502c-4.503-5.754-9.006-23.259-9.006-25.261 0-2.002-.752-2.002.254-6.75a83.344 83.344 0 0 1 4.25-13.256c.996-2.247.751-2.754 3.252-5.246a33.59 33.59 0 0 1 5.246-4.504 132.507 132.507 0 0 1 16.99-8.507c4.748-1.749 10.492-3.253 12.005-3.751 1.513-.499 1.495-1.251 3.498-1.251 2.685.191 5.313.869 7.756 2.003 2.002.996.751 1.25 3.252 1.25h4.25c.672.032 1.342.114 2.002.245a119.902 119.902 0 0 0 6.995-10.493c2.003-3.751 3-6.75 3-7.502 0-.394-.543-1.049-1.059-1.6a36.188 36.188 0 0 0-4.442-1.154c-5.78-1.006-13.002-1.504-13.002-1.504Z"/><path fill="#999" d="m77.76 240.265-1.75-.193c.56.203 1.16.269 1.75.193Z"/><path fill="#F4F4F4" d="M94.014 222.506c0-.393-.542-1.049-1.058-1.6a36.188 36.188 0 0 0-4.442-1.154c-3.82-.665-8.28-1.102-10.86-1.329l2.108 1.582c.996.752 4.25 2.003 3.244 3.253a17.425 17.425 0 0 0-3.996 8.744c-1.006 5.246-1.25 8.254-1.25 8.254h4.249c.672.033 1.342.114 2.002.245a119.73 119.73 0 0 0 6.995-10.493c2.011-3.751 3.008-6.75 3.008-7.502Z"/><path fill="#F4F4F4" d="M113.522 304.288c4.756-7.503 8.744-23.259 8.744-38.762s-4.748-27.517-9.75-33.515c-3.917-4.696-12.88-8.928-19.35-11.026-.542 1.442-3.812 10.046-5.412 13.028-1.75 3.244-2.501 7.249-2.003 8.499.499 1.25 5.754 4.25 10.257 5.754 4.503 1.503 4.748.498 5.998 2.999 1.25 2.5 1.749 3.008 2.256 6.007.507 2.999 1.495 16.001 1.495 19.236 0 3.235-1.495 10.257-1.993 11.761-.499 1.504-1.251 3.996-1.749 5.5-.499 1.504-1.495 4.004-2.5 4.249-1.007.245-3.997 2.755-5.5 3.751-1.505.997-.753.752-3.498 3.008-2.746 2.256-8.744 7.502-11.009 8.744-2.265 1.242-2.5 2.746-5.753 3.253-3.253.507-4.748 1.25-6.506 1.25h-5.508c-2.248 0-3.752.245-5.754.245s-2.247.498-3.498 0c-1.25-.498-4.258-1.25-6.505-2.501-2.247-1.25-.997-.997-4.005-2.5-3.008-1.504-5.998 7.755-5.753 8.743.245.988 1.504.752 1.504 1.749 0 .997 0 3.008-.997 3.253-.997.245-3.497 4.757-3.497 4.757s0 .314.087.813c10.055 5.246 20.032 8.508 25.925 7.441 8.255-1.504 20.759-6.252 27.762-9.006 7.004-2.755 21.764-19.228 26.512-26.73ZM21.982 260.524l-13.055-2.29c-.445.874-.874 1.696-1.206 2.492l14.261-.202ZM4.853 271.122c-.096.63-.193 1.277-.28 1.932l15.66-.804-15.38-1.128ZM4.03 278.484c-.06.77-.113 1.548-.156 2.318l13.885-2.527-13.728.209ZM3.83 281.134c0 .944-.088 1.888-.114 2.824l15.267-3.681-15.153.857ZM18.021 322.973a42.721 42.721 0 0 0 3.13 2.361l5.054-6.54-8.184 4.179ZM40.755 238.507l-6.26-10.23a51.04 51.04 0 0 0-1.977 1.163l8.237 9.067ZM18.73 290.035l-14.865 2.536c.07 1.032.157 1.993.262 2.868l14.603-5.404ZM4.984 300.248c.184.874.393 1.749.63 2.71l15.905-6.173-16.535 3.463ZM25.48 257.018l-11.455-7.345c-.63.945-1.242 1.898-1.827 2.842l13.282 4.503ZM9.697 313.206c.41.7.874 1.408 1.329 2.108l15.957-9.776-17.286 7.668ZM24.483 301.542l-18.467 2.894c.34 1.163.734 2.37 1.206 3.594l17.26-6.488ZM41.848 224.657l7.144 11.603-5.666-12.241-1.478.638ZM49.088 221.728c-.7.253-1.399.524-2.107.796l4.267 5.482-2.16-6.278ZM56.66 219.21l5.343 15.8s-2.798-12.102-3.882-16.22l-1.46.42ZM26.485 322.798l-4.8 2.886c.874.559 1.679 1.102 2.536 1.652l2.264-4.538ZM11.586 316.109a35.179 35.179 0 0 0 2.37 2.938l10.78-7.756-13.15 4.818ZM23.355 237.449a88.916 88.916 0 0 0-2.475 2.912l13.361 6.908-10.886-9.82ZM29.895 231.215c-.14.105-.28.192-.41.297-.307.228-.621.481-.936.752l11.944 11.498-10.598-12.547Z"/><path fill="#F4F4F4" d="M115.244 235.945a28.558 28.558 0 0 0-2.719-3.934c-.122-.149-.262-.289-.394-.429l-3.611 8.936 6.724-4.573ZM100.38 320.21c-3.585 2.571-7.87 5.587-7.87 5.587l-1.993-2.999.655 5.763a81.81 81.81 0 0 0 9.208-8.351ZM90.849 328.832l-6.12-7.503 1.494 10.038.814-.314a18.257 18.257 0 0 0 3.812-2.221ZM64.87 338.738c1.478-.402 3-.874 4.539-1.337l-2.903-13.116-1.635 14.453ZM55.279 340.199l.218-5.133-1.556 5.001c.463.044.91.132 1.338.132ZM115.524 240.518l-2.754 2.003h5.508l-2.256 1.495s.752-.254.752.997c.229 2.018.562 4.023.997 6.007l1.504 3.253a9.345 9.345 0 0 1 2.405 1.958 58.748 58.748 0 0 0-4.582-16.701l-1.574.988ZM117.028 284.282c-1.504 4.249-2.256 8.743-4.005 10.755-1.748 2.011-2.5 8.254-3.252 9.758-.752 1.504-.254 1.749-2.003 4.748a13.737 13.737 0 0 0-1.434 4.127c2.6-2.966 5.001-6.1 7.188-9.382 4.756-7.503 8.744-23.259 8.744-38.762a72.11 72.11 0 0 0-.499-8.552v6.55l-2.5 2.5 1.503 3-1.503 1.503s-.744 9.505-2.239 13.755ZM85.76 242.512c.498 1.25 5.753 4.25 10.256 5.754 3.07 1.023 4.163.874 4.941 1.486-.123-.35-.315-.603-.437-.988-.254-.752-1.75-2.501-3.253-3.996a54.815 54.815 0 0 0-4.503-3.751s-5.002-1.504-6.252-1.259c-.516.105-.77.795-.874 1.574-.031.397.01.797.122 1.18Z"/></svg>