<svg xmlns="http://www.w3.org/2000/svg" width="58" height="58" fill="none"><rect width="58" height="57" y=".731" fill="#285E67" rx="9"/><path fill="#fff" d="m41.782 42.31-1.49-1.661c.1-2.21.267-13.04-5.626-19.615-5.1-5.689-13.184-6.303-16.424-6.303-.927 0-1.484.05-1.507.051-.365.033-.655.356-.684.763-.037.52-.843 12.812 5.604 20.004 5.1 5.689 13.185 6.303 16.424 6.303.507 0 .898-.015 1.157-.028l1.491 1.663a.705.705 0 0 0 .528.244c.19 0 .381-.081.527-.244a.901.901 0 0 0 0-1.176Zm-19.073-7.938c-5.1-5.69-5.264-15.263-5.2-17.965.203-.006.45-.011.733-.011 3.054 0 10.664.567 15.369 5.815 4.522 5.045 5.163 13.138 5.206 16.792l-5.504-6.14.693-6.626c.048-.456-.245-.87-.654-.923-.413-.052-.78.274-.828.73l-.556 5.319L28.2 27.16l-.582-4.92c-.055-.455-.431-.777-.838-.716-.408.06-.696.479-.642.934l.328 2.767-4.37-4.875a.692.692 0 0 0-1.055 0 .901.901 0 0 0 0 1.177l4.37 4.874-2.48-.365c-.408-.06-.783.26-.837.716-.054.455.233.874.642.934l4.409.65 3.768 4.203-4.768.62c-.409.054-.702.467-.654.924.044.424.367.736.74.736a.618.618 0 0 0 .087-.006l5.94-.773 5.509 6.146c-3.233-.04-10.505-.735-15.058-5.814Z"/></svg>