<svg xmlns="http://www.w3.org/2000/svg" width="94" height="83" fill="none"><rect width="90.116" height="80.057" x="1.942" y="1.472" stroke="#fff" stroke-width="2" rx="8"/><path fill="#fff" d="m68.572 63.21-2.52-2.745c.17-3.65.451-21.534-9.522-32.392-8.63-9.395-22.312-10.409-27.794-10.409a32 32 0 0 0-2.55.085c-.618.054-1.109.587-1.158 1.26-.063.858-1.426 21.157 9.484 33.034 8.63 9.395 22.313 10.408 27.795 10.408.857 0 1.519-.024 1.957-.046l2.524 2.747c.246.269.57.403.892.403.324 0 .647-.134.893-.403a1.462 1.462 0 0 0 0-1.942ZM36.296 50.1c-8.632-9.398-8.908-25.206-8.8-29.668a39.19 39.19 0 0 1 1.24-.018c5.168 0 18.047.935 26.01 9.603 7.652 8.331 8.736 21.696 8.81 27.73L54.24 47.609l1.173-10.943c.08-.754-.416-1.436-1.108-1.524-.698-.086-1.319.452-1.4 1.205l-.94 8.784-6.378-6.941-.986-8.124c-.091-.752-.729-1.284-1.417-1.182-.69.1-1.178.79-1.086 1.542l.554 4.57-7.394-8.051a1.19 1.19 0 0 0-1.785 0 1.461 1.461 0 0 0 0 1.943l7.394 8.049-4.196-.603c-.691-.1-1.326.43-1.417 1.182-.092.753.395 1.443 1.086 1.543l7.461 1.073 6.377 6.942-8.068 1.024c-.692.088-1.188.77-1.107 1.524.075.7.62 1.216 1.252 1.216.049 0 .098-.003.148-.01l10.051-1.276 9.323 10.15C56.307 59.633 44 58.485 36.296 50.1Z"/></svg>