<svg xmlns="http://www.w3.org/2000/svg" width="293" height="296" fill="none"><path fill="#2B2B2B" stroke="#2B2B2B" stroke-linecap="round" stroke-linejoin="round" d="M169.19 77.954c-2.093-13.496-9.695-21.433-9.695-21.433-9.248-6.077-16.558.671-16.558.671s-7.311-6.748-16.559-.671c0 0-7.612 7.926-9.695 21.433-2.093 13.496 6.113 19.407 6.113 19.407h40.291s8.206-5.9 6.113-19.407h-.01Z"/><path fill="#fff" stroke="#2B2B2B" stroke-linecap="round" stroke-linejoin="round" d="M174.418 93.046s17.22-1.762 23.761 10.92c6.542 12.67 24.599 70.771 23.042 73.941-1.558 3.17-12.762 3.17-16.812-.352-4.049-3.523-22.418-38.727-22.418-38.727l-7.564-45.771-.009-.011Z"/><path fill="#2B2B2B" stroke="#2B2B2B" stroke-linecap="round" stroke-linejoin="round" d="M178.399 109.283s7.291 21.509 8.858 38.891l-5.266-9.346-3.592-29.545Z"/><path fill="#fff" stroke="#2B2B2B" stroke-linecap="round" stroke-linejoin="round" d="M187.442 207.838c-3.027-10.568-12.421-32.045-12.421-33.454 0-1.409 7.875-27.465 7.875-39.078 0-11.614-8.478-42.25-8.478-42.25s-12.957-2.4-15.945-6.23c-2.989-3.83-2.512-23.007-2.512-23.007l-13.054-1.739-13.053 1.74s.467 19.175-2.512 23.006c-2.988 3.83-15.945 6.23-15.945 6.23s-8.479 30.636-8.479 42.25c0 11.613 7.876 37.68 7.876 39.078 0 1.398-9.394 22.886-12.421 33.454-3.028 10.568-5.754 30.988-6.055 40.488l50.599 34.862 50.599-34.862c-.301-9.511-3.027-29.931-6.054-40.488h-.02Z"/><path fill="#2B2B2B" stroke="#2B2B2B" stroke-linecap="round" stroke-linejoin="round" d="m140.464 72.736 14.28 3.291-.321-12.637-13.959 9.346Z"/><path stroke="#2B2B2B" stroke-linecap="round" stroke-linejoin="round" d="M122.777 97.36s13.161-.792 15.847-.572M163.067 97.36l-13.862-.935s-3.523.727-3.523 3.259"/><path fill="#fff" stroke="#2B2B2B" stroke-linecap="round" stroke-linejoin="round" d="M162.551 10.848c-1.392-2.311-3.193-4.073-5.811-5.658-2.258-1.365-4.712-2.345-7.194-3.093-8.44-2.565-22.496-.385-27.285 8.784-3.991 7.64-4.293 10.667-3.553 17.778.739 7.112 4.731 31.99 8.284 36.261 3.553 4.271 11.545 7.816 13.462 7.816h3.845c1.928 0 9.91-3.556 13.463-7.816 3.553-4.271 7.544-29.15 8.284-36.26.477-4.591 0-9.203-1.538-13.518-.584-1.63-1.217-3.039-1.966-4.294h.009Z"/><path stroke="#2B2B2B" stroke-linecap="round" stroke-linejoin="round" d="M128.841 36.453s4.468 2.433 9.092-.936"/><path stroke="#2B2B2B" stroke-linecap="round" stroke-linejoin="round" stroke-width="2" d="M138.926 25.412s-7.447-4.678-11.574 2.807"/><path stroke="#2B2B2B" stroke-linecap="round" stroke-linejoin="round" d="M157.12 36.453s-4.469 2.433-9.092-.936"/><path stroke="#2B2B2B" stroke-linecap="round" stroke-linejoin="round" stroke-width="2" d="M147.025 25.412s7.447-4.678 11.574 2.807"/><path stroke="#2B2B2B" stroke-linecap="round" stroke-linejoin="round" d="M147.025 29.903s-2.482 8.047-1.489 8.796c.993.748 2.316 2.433 1.654 4.491-.661 2.059-2.316 2.62-2.813 2.62"/><path fill="#2B2B2B" d="M145.049 55.156c0 1.035-.633 1.871-1.402 1.871-.769 0-1.402-.836-1.402-1.871 0-1.035.633-1.872 1.402-1.872.769 0 1.402.837 1.402 1.872Z"/><path fill="#2B2B2B" stroke="#2B2B2B" stroke-linecap="round" stroke-linejoin="round" d="M164.527 15.868c-.584-1.717-1.216-3.203-1.966-4.513-1.392-2.433-3.193-4.282-5.811-5.945-2.259-1.43-4.712-2.466-7.194-3.258-7.573-2.422-17.512-1.09-23.752 4.612-6.882 6.286-8.888 18.846-6.298 28.038 1.265-.584 2.141-2.103 2.102-3.644-.048-2.102-1.596-3.919-1.547-6.021.048-2.026 1.518-3.578 2.609-5.185 2.628-3.875 3.582-9.357 7.232-11.966 2.054-1.475 4.624-1.717 7.048-1.563 2.025.132 4.03.54 6.064.572 1.684.022 3.184-.594 4.858-.737a9.716 9.716 0 0 1 8.819 4.205c2.57 3.743 3.787 8.608 6.357 11.592 2.57 2.994.457 5.24-.302 8.42-.652 2.742 1.957 4.37 2.687 4.767.292-2.102.506-3.886.632-5.14.477-4.822 0-9.677-1.538-14.223v-.011Z"/><path fill="#fff" stroke="#2B2B2B" stroke-linecap="round" stroke-linejoin="round" d="M119.496 34.79s-2.404-2.454-4.39-.032c-1.986 2.433-.662 7.672.496 9.907 1.159 2.235 6.454 4.866 6.454 4.866l-2.56-14.751v.01ZM165.627 34.79s2.522-2.31 4.381.243c1.859 2.554.292 7.695-.974 9.863-1.265 2.169-6.356 4.239-6.356 4.239l2.949-14.355v.01Z"/><path fill="#285E67" stroke="#285E67" stroke-linecap="round" stroke-linejoin="round" d="m92.308 248.326 58.698 42.612 42.491-42.612c-.234-7.409-1.947-21.455-4.127-32.287-51.914 7.375-83.142 2.466-93.022.363-2.142 10.788-3.816 24.592-4.05 31.924h.01Z"/><path fill="#FCE2D7" stroke="#2B2B2B" stroke-linecap="round" stroke-linejoin="round" d="M95.734 219.749c46.511 9.335 83.366 1.882 94.21-.826-.769-4.183-1.616-8.047-2.492-11.085-3.027-10.568-12.421-32.045-12.421-33.454 0-1.409 7.875-27.465 7.875-39.078 0-11.614-8.479-42.25-8.479-42.25s-3.689-.682-7.583-1.904c.214 10.348-.769 47.093-25.942 43.449-24.657-3.555-22.574-34.103-21.309-43.647-4.107 1.343-8.176 2.092-8.176 2.092s-8.479 30.635-8.479 42.249c0 11.613 7.875 37.68 7.875 39.078 0 1.398-9.394 22.886-12.421 33.454-.925 3.236-1.83 7.408-2.638 11.911l-.02.011Z"/><path fill="#2B2B2B" stroke="#2B2B2B" stroke-linecap="round" stroke-linejoin="round" d="M133.776 217.393s24.424-9.203 26.809-11.217c2.385-2.026 5.656-3.699 5.656-3.699l17.862-3.699-2.083-5.724s-21.143 4.381-26.497 7.408c-5.364 3.028-21.747 16.942-21.747 16.942v-.011Z"/><path stroke="#2B2B2B" stroke-linecap="round" stroke-linejoin="round" d="m123.886 172.172 39.425-17.393M160.429 161.296l-13.462 5.438"/><path fill="#fff" stroke="#2B2B2B" stroke-linecap="round" stroke-linejoin="round" d="M111.397 93.046s-13.794-2.114-23.45 9.158c-9.657 11.273-26.156 41.545-26.156 46.477 0 4.931 11.827 5.988 19.303 1.761 7.476-4.227 22.73-26.761 22.73-26.761l7.563-30.635h.01Z"/><path fill="#fff" d="M206.395 160.129c-.964-.055-6.074 3.214-10.562 6.495-5.733 4.194-22.837 18.328-30.001 19.726-7.165 1.409-9.968.705-9.968.705s-8.45-4.227-10.63-4.58c-2.181-.352-5.802.87-8.761 1.431-2.959.562-4.935-.275-4.809.694.127.98.243 2.51 2.22 3.071 1.976.562 4.935.275 4.935.275s2.959.143 3.456.276c.496.143-19.372 10.457-19.372 10.457s-.243.562.613 1.112c.867.562 10.251-1.64 10.251-1.64l.36 1.222s-12.703 6.274-12.957 6.836c-.243.561-.126 1.816.74 1.816.867 0 12.928-4.282 12.928-4.282l.272 1.354s-9.617 7.111-9.871 7.53c-.243.418 0 1.673.867 1.53.866-.143 11.097-5.02 11.097-5.02l.419.859s-5.607 6.12-5.481 6.681c.127.562.866 1.255 1.606.694.74-.561 9.131-5.724 9.131-5.724s11.964-5.306 12.704-5.581c.739-.276 9.004-6.143 9.004-6.143s26.896-4.04 38.237-10.457c11.35-6.418 18.222-8.664 18.368-11.581.137-2.917-2.579-11.294-2.579-11.294"/><path stroke="#2B2B2B" stroke-linecap="round" stroke-linejoin="round" d="M206.395 160.129c-.964-.055-6.074 3.214-10.562 6.495-5.733 4.194-22.837 18.328-30.001 19.726-7.165 1.409-9.968.705-9.968.705s-8.45-4.227-10.63-4.58c-2.181-.352-5.802.87-8.761 1.431-2.959.562-4.935-.275-4.809.694.127.98.243 2.51 2.22 3.071 1.976.562 4.935.275 4.935.275s2.959.143 3.456.276c.496.143-19.372 10.457-19.372 10.457s-.243.562.613 1.112c.867.562 10.251-1.64 10.251-1.64l.36 1.222s-12.703 6.274-12.957 6.836c-.243.561-.126 1.816.74 1.816.867 0 12.928-4.282 12.928-4.282l.272 1.354s-9.617 7.111-9.871 7.53c-.243.418 0 1.673.867 1.53.866-.143 11.097-5.02 11.097-5.02l.419.859s-5.607 6.12-5.481 6.681c.127.562.866 1.255 1.606.694.74-.561 9.131-5.724 9.131-5.724s11.964-5.306 12.704-5.581c.739-.276 9.004-6.143 9.004-6.143s26.896-4.04 38.237-10.457c11.35-6.418 18.222-8.664 18.368-11.581.137-2.917-2.579-11.294-2.579-11.294"/><path fill="#fff" stroke="#2B2B2B" stroke-linecap="round" stroke-linejoin="round" d="M67.427 136.671s12.742-7.948 29.437-14.245c16.694-6.296 27.529-10.27 37.633-15.4 10.104-5.13 8.644-3.479 9.082-3.479.438 0 12.888 2.984 13.764 3.149.877.165 13.619 5.295 13.619 5.295s.146 1.486-1.022 1.992l-1.168.495s-.73 1.486-1.908 1.652c-1.168.165-3.952.66-4.391.66-.438 0-2.2.991-3.952 1.486-1.752.496-3.66.991-4.682 1.156-1.022.165-6.152.495-6.152.495s-4.098 1.156-8.498 1.321c-4.39.165-9.958-.66-9.958-.66s-42.91 33.784-48.186 37.262c-5.276 3.479-10.688 7.122-15.088 5.801-4.39-1.321-7.466-2.983-6.736-7.122.73-4.139 2.492-12.747 8.196-19.869l.01.011Z"/><path stroke="#2B2B2B" stroke-linecap="round" stroke-linejoin="round" d="M145.623 106.861s9.228 1.321 11.565 1.486c2.346.165 13.764 3.643 13.764 3.643M146.363 111l13.764.671 8.635 2.807M146.207 114.809l7.33.506 8.927 1.486"/><path fill="#285E67" stroke="#285E67" stroke-linecap="round" stroke-linejoin="round" d="M163.973 274.008s13.56-21.609 26.331-31.484c12.772-9.874 39.376-18.207 61.278-8.333 21.903 9.875 37.809 33.949 39.629 37.351 1.82 3.39.263 11.415-2.346 15.433-2.609 4.018-9.121 8.025-12.519 8.025h-159.04s-.779-3.391 1.83-6.176c2.609-2.774 17.989-8.641 21.124-10.49 3.124-1.85 6.775-12.968 12.781-15.125 6.006-2.158 10.951 10.799 10.951 10.799h-.019Z"/><path fill="#285E67" d="M262.105 295H117.734s-.779-3.391 1.811-6.176c2.579-2.774 17.814-8.641 20.919-10.49 3.096-1.85 6.717-12.968 12.655-15.125 5.938-2.158 10.844 10.798 10.844 10.798s1.548 2.466 4.137 4.184c2.58 1.717 6.892 3.599 7.749 3.599.856 0 19.381-2.741 28.852-7.893 9.472-5.14 23.11-15.433 34.158-16.809 11.049-1.376 20.092 4.8 25.689 9.258"/><path stroke="#285E67" stroke-linecap="round" stroke-linejoin="round" d="M262.105 295H117.734s-.779-3.391 1.811-6.176c2.579-2.774 17.814-8.641 20.919-10.49 3.096-1.85 6.717-12.968 12.655-15.125 5.938-2.158 10.844 10.798 10.844 10.798s1.548 2.466 4.137 4.184c2.58 1.717 6.892 3.599 7.749 3.599.856 0 19.381-2.741 28.852-7.893 9.472-5.14 23.11-15.433 34.158-16.809 11.049-1.376 20.092 4.8 25.689 9.258"/><path stroke="#fff" stroke-linecap="round" stroke-linejoin="round" d="M268.851 271.498s-4.449 5.658-8.751 6.516c-4.303.859-19.81-1.882-24.979-3.258M175.839 281.79c.856 0 19.381-2.741 28.853-7.893 9.471-5.14 23.109-15.433 34.158-16.809 11.048-1.376 20.091 4.8 25.689 9.258"/><path fill="#fff" stroke="#285E67" stroke-linecap="round" stroke-linejoin="round" d="M175.527 281.746 174.31 295h-56.576s-.779-3.391 1.811-6.176c2.579-2.774 17.814-8.641 20.919-10.49 3.096-1.85 6.717-12.968 12.655-15.125 5.938-2.158 10.844 10.798 10.844 10.798s1.548 2.466 4.137 4.184c2.356 1.563 6.133 3.269 7.437 3.555h-.01Z"/><path fill="#285E67" stroke="#285E67" stroke-linecap="round" stroke-linejoin="round" d="M135.022 274.008s-14.192-21.609-27.567-31.484c-13.375-9.874-41.216-18.207-64.14-8.333-22.925 9.875-39.57 33.949-41.488 37.351-1.908 3.39-.273 11.415 2.453 15.433C7.005 290.982 13.83 295 17.382 295H183.87s.817-3.391-1.908-6.176c-2.726-2.774-18.836-8.641-22.107-10.49-3.271-1.85-7.096-12.968-13.375-15.125-6.279-2.158-11.467 10.799-11.467 10.799h.009Z"/><path fill="#285E67" d="M31.293 295H183.87s.817-3.391-1.908-6.176c-2.726-2.774-18.836-8.641-22.107-10.49-3.271-1.85-7.096-12.968-13.375-15.125-6.279-2.158-11.467 10.798-11.467 10.798s-1.636 2.466-4.371 4.184c-2.735 1.717-7.281 3.599-8.187 3.599-.905 0-20.481-2.741-30.488-7.893-10.016-5.14-24.423-15.433-36.105-16.809-11.681-1.376-21.24 4.8-27.149 9.258"/><path stroke="#285E67" stroke-linecap="round" stroke-linejoin="round" d="M31.293 295H183.87s.817-3.391-1.908-6.176c-2.726-2.774-18.836-8.641-22.107-10.49-3.271-1.85-7.096-12.968-13.375-15.125-6.279-2.158-11.467 10.798-11.467 10.798s-1.636 2.466-4.371 4.184c-2.735 1.717-7.281 3.599-8.187 3.599-.905 0-20.481-2.741-30.488-7.893-10.016-5.14-24.423-15.433-36.105-16.809-11.681-1.376-21.24 4.8-27.149 9.258"/><path stroke="#fff" stroke-linecap="round" stroke-linejoin="round" d="M24.167 271.498s4.702 5.658 9.258 6.516c4.546.859 20.928-1.882 26.39-3.258M122.455 281.79c-.905 0-20.481-2.741-30.488-7.893-10.016-5.14-24.423-15.433-36.105-16.809-11.681-1.376-21.24 4.8-27.149 9.258"/><path fill="#fff" stroke="#285E67" stroke-linecap="round" stroke-linejoin="round" d="M122.786 281.746 124.071 295h59.789s.818-3.391-1.908-6.176c-2.726-2.774-18.836-8.641-22.107-10.49-3.271-1.85-7.096-12.968-13.375-15.125-6.279-2.158-11.467 10.798-11.467 10.798s-1.635 2.466-4.371 4.184c-2.492 1.563-6.483 3.269-7.865 3.555h.019Z"/><path stroke="#fff" stroke-linecap="round" stroke-linejoin="round" d="M96.28 237.549s19.303 6.131 36.007 24.526M190.314 242.524s-16.821 7.772-30.917 19.055"/></svg>