<svg xmlns="http://www.w3.org/2000/svg" width="83" height="82" fill="none"><path fill="#000" d="M67.448 21.09a.906.906 0 0 0-.852-.85c-11.385-.68-20.49 2.742-24.36 9.128-2.638 4.355-2.531 9.498.28 14.548a15.254 15.254 0 0 0-3.772 7.796l-5.322-5.322c1.956-3.625 1.996-7.325.096-10.465-2.814-4.647-9.407-7.13-17.643-6.647a.906.906 0 0 0-.847.847c-.483 8.231 2 14.824 6.647 17.638a9.474 9.474 0 0 0 4.957 1.4 11.62 11.62 0 0 0 5.508-1.495l6.391 6.398v6.871a.907.907 0 0 0 1.813 0v-6.68a13.497 13.497 0 0 1 3.464-9.063c2.603 1.44 5.227 2.166 7.757 2.166 2.384 0 4.722-.66 6.754-1.906 6.385-3.872 9.8-12.977 9.129-24.364ZM22.613 46.21c-3.913-2.364-6.058-7.999-5.814-15.16 7.162-.245 12.797 1.9 15.162 5.813 1.468 2.426 1.493 5.295.104 8.177l-6.488-6.494a.906.906 0 0 0-1.28 1.28l6.495 6.496c-2.884 1.389-5.753 1.364-8.179-.111Zm34.766-2.31c-3.636 2.202-7.95 2.173-12.252-.057l13.077-13.08a.906.906 0 0 0-1.28-1.282l-13.08 13.08c-2.23-4.305-2.265-8.61-.056-12.253 3.423-5.664 11.572-8.729 21.892-8.3.43 10.32-2.646 18.469-8.301 21.892Z"/><circle cx="41.25" cy="41" r="40" stroke="#000" stroke-width="2"/></svg>