<svg aria-hidden="true" style="position: absolute; width: 0; height: 0; overflow: hidden;" version="1.1"
    xmlns="http://www.w3.org/2000/svg" xmlns:xlink="http://www.w3.org/1999/xlink">
    <defs>
        <symbol id="icon-facebook" viewBox="0 0 32 32">
            <path
                d="M30.719 0.077h-29.439c-0.708 0-1.28 0.569-1.28 1.274v29.299c0 0.705 0.572 1.274 1.28 1.274h29.439c0.708 0 1.28-0.569 1.28-1.274v-29.299c0-0.705-0.572-1.274-1.28-1.274zM29.439 29.376h-7.364v-9.785h4.16l0.624-4.805h-4.784v-3.069c0-1.393 0.388-2.341 2.392-2.341h2.556v-4.299c-0.444-0.060-1.96-0.191-3.728-0.191-3.688 0-6.212 2.241-6.212 6.353v3.543h-4.168v4.805h4.172v9.789h-14.527v-26.751h26.879v26.751z">
            </path>
        </symbol>
        <symbol id="icon-linkedin" viewBox="0 0 32 32">
            <path
                d="M3.637 0.001c-0.962 0.007-1.883 0.392-2.564 1.073s-1.066 1.601-1.073 2.564v24.726c0 1.988 1.648 3.636 3.636 3.636h24.726c1.988 0 3.636-1.648 3.636-3.636v-24.726c0-1.988-1.648-3.636-3.636-3.636h-24.726zM3.637 2.909h24.726c0.415 0 0.727 0.313 0.727 0.727v24.726c0.002 0.096-0.015 0.192-0.051 0.281s-0.089 0.17-0.157 0.238-0.149 0.121-0.238 0.157c-0.089 0.036-0.185 0.053-0.281 0.051h-24.726c-0.096 0.002-0.192-0.015-0.281-0.051s-0.17-0.089-0.238-0.157c-0.068-0.068-0.121-0.149-0.157-0.238s-0.053-0.185-0.051-0.281v-24.726c0-0.414 0.313-0.727 0.727-0.727zM7.91 5.41c-0.333-0.008-0.665 0.051-0.975 0.173s-0.593 0.305-0.832 0.538c-0.239 0.233-0.428 0.511-0.558 0.818s-0.196 0.637-0.196 0.971c0 0.333 0.067 0.663 0.196 0.971s0.319 0.586 0.558 0.818c0.239 0.233 0.521 0.416 0.832 0.538s0.642 0.181 0.975 0.173c0.652-0.016 1.273-0.286 1.729-0.753s0.711-1.094 0.711-1.746c0-0.653-0.255-1.279-0.711-1.746s-1.076-0.737-1.729-0.753zM21.044 12.045c-2.084 0-3.47 1.142-4.044 2.227h-0.092v-1.908h-4.091v13.818h4.273v-6.819c0-1.801 0.358-3.544 2.591-3.544 2.199 0 2.228 2.033 2.228 3.636v6.727h4.272v-7.591c0-3.715-0.791-6.545-5.137-6.545zM5.818 12.364v13.818h4.318v-13.818h-4.318z">
            </path>
        </symbol>
        <symbol id="icon-instagram" viewBox="0 0 32 32">
            <path
                d="M9.28 0h13.44c5.12 0 9.28 4.16 9.28 9.28v13.44c0 2.461-0.978 4.822-2.718 6.562s-4.101 2.718-6.562 2.718h-13.44c-5.12 0-9.28-4.16-9.28-9.28v-13.44c0-2.461 0.978-4.822 2.718-6.562s4.101-2.718 6.562-2.718zM8.96 3.2c-1.528 0-2.993 0.607-4.073 1.687s-1.687 2.545-1.687 4.073v14.080c0 3.184 2.576 5.76 5.76 5.76h14.080c1.528 0 2.993-0.607 4.073-1.687s1.687-2.545 1.687-4.073v-14.080c0-3.184-2.576-5.76-5.76-5.76h-14.080zM24.4 5.6c0.53 0 1.039 0.211 1.414 0.586s0.586 0.884 0.586 1.414c0 0.53-0.211 1.039-0.586 1.414s-0.884 0.586-1.414 0.586c-0.53 0-1.039-0.211-1.414-0.586s-0.586-0.884-0.586-1.414c0-0.53 0.211-1.039 0.586-1.414s0.884-0.586 1.414-0.586zM16 8c2.122 0 4.156 0.843 5.657 2.343s2.343 3.535 2.343 5.657c0 2.122-0.843 4.156-2.343 5.657s-3.535 2.343-5.657 2.343c-2.122 0-4.156-0.843-5.657-2.343s-2.343-3.535-2.343-5.657c0-2.122 0.843-4.156 2.343-5.657s3.535-2.343 5.657-2.343zM16 11.2c-1.273 0-2.494 0.506-3.394 1.406s-1.406 2.121-1.406 3.394c0 1.273 0.506 2.494 1.406 3.394s2.121 1.406 3.394 1.406c1.273 0 2.494-0.506 3.394-1.406s1.406-2.121 1.406-3.394c0-1.273-0.506-2.494-1.406-3.394s-2.121-1.406-3.394-1.406z">
            </path>
        </symbol>
        <symbol id="icon-twitter" viewBox="0 0 32 32">
            <path
                d="M30.884 3.202l1.067-0.070c-0.014-0.209-0.089-0.41-0.217-0.577s-0.301-0.292-0.499-0.361c-0.198-0.069-0.412-0.077-0.616-0.024s-0.386 0.164-0.526 0.32l0.791 0.712zM29.822 9.514c0-0.283-0.112-0.554-0.312-0.754s-0.471-0.312-0.754-0.312-0.554 0.112-0.754 0.312c-0.2 0.2-0.312 0.471-0.312 0.754h2.133zM1.069 26.666v-1.067c-0.229-0-0.452 0.073-0.636 0.21s-0.319 0.328-0.386 0.547-0.061 0.454 0.017 0.669c0.077 0.216 0.222 0.401 0.412 0.528l0.593-0.887zM3.197 3.202l1-0.373c-0.073-0.195-0.201-0.364-0.368-0.487s-0.367-0.194-0.575-0.205c-0.208-0.011-0.414 0.039-0.593 0.144s-0.325 0.26-0.417 0.446l0.954 0.476zM11.717 22.399l0.755 0.753c0.128-0.129 0.221-0.288 0.271-0.462s0.054-0.359 0.012-0.535c-0.042-0.177-0.128-0.34-0.25-0.474s-0.277-0.235-0.449-0.293l-0.339 1.011zM27.126 5.277l-0.789 0.717 0.384 0.424 0.565-0.085-0.16-1.056zM29.822 3.272c0.109 1.659 0.006 2.666-0.262 3.426-0.26 0.736-0.717 1.342-1.542 2.133l1.476 1.54c0.934-0.896 1.655-1.775 2.078-2.961 0.412-1.165 0.497-2.513 0.38-4.279l-2.129 0.141zM29.822 11.066v-1.553h-2.133v1.555l2.133-0.002zM14.912 9.688v2.046h2.133v-2.046h-2.133zM14.912 11.734v1.067h2.133v-1.067h-2.133zM22.453 2.135c-0.991 0.001-1.973 0.196-2.889 0.576s-1.748 0.936-2.448 1.638c-0.701 0.701-1.256 1.534-1.635 2.45s-0.574 1.898-0.573 2.889h2.133c-0.001-0.711 0.139-1.416 0.411-2.073s0.67-1.255 1.173-1.758 1.1-0.903 1.757-1.175c0.657-0.273 1.361-0.413 2.073-0.413v-2.133h-0.002zM27.687 11.066c0.002 9.206-7.449 16.666-16.636 16.666v2.133c10.367 0 18.771-8.417 18.771-18.799h-2.135zM2.199 3.575c1.16 3.097 5.512 9.226 13.78 9.226v-2.133c-7.073 0-10.813-5.247-11.783-7.839l-1.997 0.747zM2.244 2.726c-2.233 4.471-2.577 8.81-0.954 12.504 1.619 3.684 5.102 6.516 10.089 8.18l0.676-2.022c-4.597-1.536-7.504-4.036-8.814-7.018-1.305-2.971-1.116-6.634 0.911-10.693l-1.909-0.951zM10.962 21.646c-1.284 1.286-5.145 3.953-9.893 3.953v2.133c5.473 0 9.848-3.020 11.403-4.58l-1.51-1.506zM27.917 4.563c-0.69-0.765-1.532-1.376-2.473-1.794s-1.959-0.634-2.989-0.633v2.133c1.538 0 2.922 0.663 3.882 1.726l1.581-1.431zM27.286 6.333c1.699-0.278 3.251-1.132 4.394-2.419l-1.587-1.425c-0.813 0.919-1.917 1.531-3.127 1.734l0.32 2.11zM0.476 27.553c3.5 2.334 7.169 2.312 10.576 2.312v-2.133c-3.477 0-6.502-0.023-9.39-1.954l-1.186 1.775z">
            </path>
        </symbol>
    </defs>
</svg>